<?xml version="1.0" encoding="UTF-8" standalone="no"?>
<!-- Created with Inkscape (http://www.inkscape.org/) -->

<svg
   xmlns:dc="http://purl.org/dc/elements/1.1/"
   xmlns:cc="http://creativecommons.org/ns#"
   xmlns:rdf="http://www.w3.org/1999/02/22-rdf-syntax-ns#"
   xmlns:svg="http://www.w3.org/2000/svg"
   xmlns="http://www.w3.org/2000/svg"
   xmlns:sodipodi="http://sodipodi.sourceforge.net/DTD/sodipodi-0.dtd"
   xmlns:inkscape="http://www.inkscape.org/namespaces/inkscape"
   width="35.589336mm"
   height="63.999393mm"
   viewBox="0 0 35.589336 63.999393"
   version="1.1"
   id="svg4766"
   inkscape:version="0.92.4 (5da689c313, 2019-01-14)"
   sodipodi:docname="lbrachial.svg">
  <defs
     id="defs4760" />
  <sodipodi:namedview
     id="base"
     pagecolor="#ffffff"
     bordercolor="#666666"
     borderopacity="1.0"
     inkscape:pageopacity="0.0"
     inkscape:pageshadow="2"
     inkscape:zoom="0.49497475"
     inkscape:cx="199.33538"
     inkscape:cy="37.915457"
     inkscape:document-units="mm"
     inkscape:current-layer="layer1"
     showgrid="false"
     inkscape:window-width="1225"
     inkscape:window-height="768"
     inkscape:window-x="0"
     inkscape:window-y="0"
     inkscape:window-maximized="1" />
  <metadata
     id="metadata4763">
    <rdf:RDF>
      <cc:Work
         rdf:about="">
        <dc:format>image/svg+xml</dc:format>
        <dc:type
           rdf:resource="http://purl.org/dc/dcmitype/StillImage" />
        <dc:title />
      </cc:Work>
    </rdf:RDF>
  </metadata>
  <g
     inkscape:label="Layer 1"
     inkscape:groupmode="layer"
     id="layer1"
     transform="translate(-1.5011093,-1.6458698)">
    <g
       transform="matrix(0.26458333,0,0,0.26458333,-77.830464,-58.964628)"
       id="g2001">
      <path
         style="fill:#fff9ec;stroke:#000000"
         inkscape:connector-curvature="0"
         id="path1997"
         d="m 377.582,242.972 c -0.814,-1.05 -0.891,-2.609 -1.705,-3.688 -1.066,-1.411 -2.686,-1.444 -4.305,-1.107 -4.115,0.854 -7.51,3.705 -11.303,5.351 -5.742,2.492 -8.637,6.646 -17.262,5.521 -3.537,-0.461 -8.25,-1 -11.633,-1.859 -7.221,-1.834 -13.492,-9.141 -18.242,-8.016 -1.623,0.384 -5.646,8.466 -6.375,10 -1.771,3.722 -6.133,9.216 -6.375,13.375 -0.309,5.294 1,10.875 2.238,16.473 4.059,18.346 9.396,36.185 15.137,53.402 2.875,8.625 4.332,18.346 11.9,22.5 10.85,-3.75 15.861,-15.926 18.225,-22.751 3.92,-11.313 8.4,-21.828 16.479,-30.726 4.633,-5.104 7.563,-9.174 9.672,-15.899 0.834,-2.664 2.666,-5.094 4.877,-6.783 0.84,-0.641 1.896,-1.388 2.918,-1.692 2.646,-0.787 5.91,-1.598 4.344,-4.997 -1.25,-2.714 -3.879,-4.611 -5.723,-6.893 -1.102,-1.365 -2.271,-3.053 -2.805,-4.746 -2.801,-8.887 0.619,-11.786 9.363,-11.889 4.795,-0.057 16.172,2.508 16.496,-3.502 0.291,-5.395 -2.221,-10.042 -6.918,-12.692 -1.721,-0.97 -3.602,-1.655 -5.521,-2.105 -1.588,-0.373 -4.98,-1.338 -6.328,0.085 -1.041,1.098 -0.076,3.146 -0.182,4.49 -0.162,2.026 -1.096,4.373 -2.305,6.002 -0.523,0.705 -3.619,3.497 -4.667,2.146 z" />
      <path
         style="fill:#fff9ec;stroke:#000000"
         inkscape:connector-curvature="0"
         id="path1999"
         d="m 383.835,275.219 c 5.338,5.663 5.639,11.287 7.172,18.829 1.492,7.347 1.668,15.381 2,22.997 0.713,16.315 0.996,32.836 1,49.032 0.002,16.694 1.404,32.595 1.947,48.897 0.553,16.575 -2.857,33.648 -0.773,48.9 1.158,4.842 11.975,7.283 18.85,6.42 3.391,-0.426 17.432,-5.367 18.773,-7.226 5.814,-8.063 -14.471,-28.338 -16.846,-38.023 -3.838,-15.652 -3.398,-33.403 -5.004,-49.722 -1.625,-16.544 -3.141,-32.561 -3.947,-49.274 -0.975,-20.179 -2.334,-36.871 2.773,-56.003 1.645,-6.16 4.828,-15.145 -0.32,-20.51 -4.613,-4.805 -12.604,-4.159 -18.283,-1.657 -2.041,0.898 -4.133,1.312 -5.834,2.712 -1.941,1.599 -3.393,2.811 -4.217,5.125 -0.855,2.395 -1.789,4.618 -2.172,7.164 -0.365,2.427 -0.428,5.037 0.363,7.392 0.373,1.108 0.92,2.159 1.711,3.027 0.368,0.403 2.639,1.742 2.807,1.92 z" />
    </g>
  </g>
</svg>
