<?xml version="1.0" encoding="UTF-8" standalone="no"?>
<!-- Created with Inkscape (http://www.inkscape.org/) -->

<svg
   xmlns:dc="http://purl.org/dc/elements/1.1/"
   xmlns:cc="http://creativecommons.org/ns#"
   xmlns:rdf="http://www.w3.org/1999/02/22-rdf-syntax-ns#"
   xmlns:svg="http://www.w3.org/2000/svg"
   xmlns="http://www.w3.org/2000/svg"
   xmlns:sodipodi="http://sodipodi.sourceforge.net/DTD/sodipodi-0.dtd"
   xmlns:inkscape="http://www.inkscape.org/namespaces/inkscape"
   width="28.831919mm"
   height="82.796875mm"
   viewBox="0 0 28.831919 82.796875"
   version="1.1"
   id="svg1999"
   inkscape:version="0.92.4 (5da689c313, 2019-01-14)"
   sodipodi:docname="lfemur.svg">
  <defs
     id="defs1993" />
  <sodipodi:namedview
     id="base"
     pagecolor="#ffffff"
     bordercolor="#666666"
     borderopacity="1.0"
     inkscape:pageopacity="0.0"
     inkscape:pageshadow="2"
     inkscape:zoom="0.35"
     inkscape:cx="-484.56467"
     inkscape:cy="-95.463235"
     inkscape:document-units="mm"
     inkscape:current-layer="layer1"
     showgrid="false"
     inkscape:window-width="1225"
     inkscape:window-height="768"
     inkscape:window-x="0"
     inkscape:window-y="0"
     inkscape:window-maximized="1" />
  <metadata
     id="metadata1996">
    <rdf:RDF>
      <cc:Work
         rdf:about="">
        <dc:format>image/svg+xml</dc:format>
        <dc:type
           rdf:resource="http://purl.org/dc/dcmitype/StillImage" />
        <dc:title />
      </cc:Work>
    </rdf:RDF>
  </metadata>
  <g
     inkscape:label="Layer 1"
     inkscape:groupmode="layer"
     id="layer1"
     transform="translate(-0.20653653,-0.7080396)">
    <path
       style="fill:#fff9ec;stroke:#000000;stroke-width:0.26458332"
       inkscape:connector-curvature="0"
       id="path423"
       d="m 6.2483296,66.614787 c -1.1247428,3.18373 -3.2781865,4.86277 -4.9942745,7.37579 -0.83820004,1.2274 -1.22502004,1.69439 -0.62547504,3.175 0.42439204,1.04907 0.27040501,1.65682 0.62547504,2.77812 0.264848,0.83767 1.119188,2.59107 2.106878,2.91703 0.9019637,0.29872 2.3844245,-0.68368 3.0231285,-1.22687 1.9073812,-1.6211 3.2265928,-1.6764 4.9495594,0.13229 2.002896,2.10212 4.295775,2.63128 6.096264,-1.45468 0.4191,-0.95144 0.364861,-2.6371 0.360098,-3.67532 -0.0061,-1.36472 -0.935302,-1.80817 -1.329002,-3.04589 -1.97776,-6.21453 0.2159,-11.1932 0.932656,-16.13641 0.897202,-6.18992 1.852084,-12.038537 2.778125,-18.256245 0.895615,-6.012127 0.694002,-11.751204 3.336661,-17.323594 0.616479,-1.300691 1.356519,-2.550318 2.351881,-3.57452 0.907522,-0.934244 2.166409,-1.631421 2.616465,-2.91809 C 29.234801,13.214196 28.908834,9.9987144 28.07328,7.9042731 26.959119,5.1137116 22.323354,7.7823001 21.627764,5.3603036 21.451023,4.7464706 21.82091,4.0249518 21.501558,3.3465598 21.199139,2.7046809 20.745644,2.4334829 20.165148,2.0572459 18.4525,0.94678892 16.462569,0.16018294 14.911317,1.6939729 c -1.314186,1.299104 -2.187046,3.7015207 -3.847836,4.5894617 0.460375,1.6438575 2.656152,2.2650982 3.680883,3.2779238 1.102784,1.0903476 1.748632,3.7097226 2.100528,5.2617686 -0.982928,0.850636 -1.7653,0.828411 -1.471878,2.32119 0.219075,1.116806 0.844815,2.001044 0.96229,3.162035 0.248973,2.466446 -0.34634,5.053013 -0.897202,7.381875 -0.618596,2.61276 -1.108075,5.253302 -1.713177,7.868708 -0.596371,2.5781 -1.06389,5.253831 -1.623219,7.840927 -0.315648,1.459971 -0.695589,2.947194 -0.859896,4.431775 -0.174096,1.57136 -0.742685,2.90327 -0.992187,4.46484 -0.4045475,2.48867 -0.7948076,5.02655 -1.5766516,7.42024 -0.7567076,2.31828 -1.6126348,4.60137 -2.4246418,6.90007 z" />
  </g>
</svg>
