<?xml version="1.0" encoding="UTF-8" standalone="no"?>
<!-- Created with Inkscape (http://www.inkscape.org/) -->

<svg
   xmlns:dc="http://purl.org/dc/elements/1.1/"
   xmlns:cc="http://creativecommons.org/ns#"
   xmlns:rdf="http://www.w3.org/1999/02/22-rdf-syntax-ns#"
   xmlns:svg="http://www.w3.org/2000/svg"
   xmlns="http://www.w3.org/2000/svg"
   xmlns:sodipodi="http://sodipodi.sourceforge.net/DTD/sodipodi-0.dtd"
   xmlns:inkscape="http://www.inkscape.org/namespaces/inkscape"
   width="35.050789mm"
   height="77.319099mm"
   viewBox="0 0 35.050789 77.319099"
   version="1.1"
   id="svg6092"
   inkscape:version="0.92.4 (5da689c313, 2019-01-14)"
   sodipodi:docname="lforearm.svg">
  <defs
     id="defs6086" />
  <sodipodi:namedview
     id="base"
     pagecolor="#ffffff"
     bordercolor="#666666"
     borderopacity="1.0"
     inkscape:pageopacity="0.0"
     inkscape:pageshadow="2"
     inkscape:zoom="0.24748737"
     inkscape:cx="-526.1822"
     inkscape:cy="-76.49099"
     inkscape:document-units="mm"
     inkscape:current-layer="layer1"
     showgrid="false"
     inkscape:window-width="1225"
     inkscape:window-height="768"
     inkscape:window-x="0"
     inkscape:window-y="0"
     inkscape:window-maximized="1" />
  <metadata
     id="metadata6089">
    <rdf:RDF>
      <cc:Work
         rdf:about="">
        <dc:format>image/svg+xml</dc:format>
        <dc:type
           rdf:resource="http://purl.org/dc/dcmitype/StillImage" />
        <dc:title />
      </cc:Work>
    </rdf:RDF>
  </metadata>
  <g
     inkscape:label="Layer 1"
     inkscape:groupmode="layer"
     id="layer1"
     transform="translate(-4.3972244,-3.5845042)">
    <g
       transform="matrix(0.26458333,0,0,0.26458333,-101.767,-119.23306)"
       id="g1995">
      <g
         id="g1923">
        <path
           style="fill:#fff9ec;stroke:#000000"
           inkscape:connector-curvature="0"
           id="path1919"
           d="m 419.287,475.716 c -0.646,13.039 2.834,17.5 9.5,27.833 3.355,8.971 8.986,23.137 15.166,42.667 4.701,14.851 10.334,27.333 12.834,43.167 1.451,9.191 1.832,17.742 1.834,27.168 0.002,10.855 0.689,19 13.498,19 12.168,0 8.732,-10.541 4.5,-18.5 -4.166,-7.834 -7.029,-15.117 -9.332,-24.334 -5.166,-20.667 -12.5,-40.667 -18.615,-59.328 -1.906,-5.82 -3.498,-11.964 -5.719,-17.673 -1.166,-3 -1.813,-5.931 -2.834,-9.167 -0.791,-2.508 -1.133,-4.707 -2.17,-7.117 -1.051,-2.443 -1.898,-4.983 -2.828,-7.491 -0.902,-2.431 -1.066,-4.458 -2.002,-6.892 -1.061,-2.761 1.502,-7.5 1.002,-11 -0.432,-3.017 -0.559,-2.925 -1.834,-6 -1.004,-2.417 -3.264,-3.541 -5.668,-3.333 -6.119,0.527 -7.08,5.912 -7.332,11 z" />
        <path
           style="fill:#fff9ec;stroke:#000000"
           inkscape:connector-curvature="0"
           id="path1921"
           d="m 417.121,517.127 c 4.242,18.417 9.012,36.531 13.5,54.921 4.344,17.804 10.707,34.183 17.25,51.076 2.037,5.258 3.02,16.039 10.195,15.807 11.008,-0.357 4.033,-11.359 1.301,-16.297 -14.246,-25.75 -19.707,-54.818 -26.246,-84.419 -3.168,-14.333 -6.834,-28.667 -9.055,-44.259 -0.584,-4.093 -0.051,-8.343 -0.096,-12.471 -0.039,-3.673 0.998,-10.111 -2.117,-12.884 -2.355,-2.097 -7.342,-1.443 -10.188,-1.044 -22.648,3.176 0.063,34.772 4.002,44.95 0.584,1.507 1.09,3.045 1.454,4.62 z" />
      </g>
      <g
         id="g1993">
        <g
           id="g1943">
          <g
             id="g1939">
            <path
               style="fill:#fff9ec;stroke:#000000"
               inkscape:connector-curvature="0"
               id="path1925"
               d="m 468.203,657.57 c 0.281,1.877 2.457,3.719 1.932,5.688 -0.672,2.523 -4.916,3.342 -7.209,2.674 -5.779,-1.684 -1.867,-8.633 -1.723,-12.674 0.07,-2.004 -1.391,-5.668 1.58,-6.229 0.41,-0.076 0.834,-0.107 1.246,-0.053 1.67,0.227 3.314,0.85 4.055,2.496 0.611,1.357 0.443,2.938 0.285,4.373 -0.137,1.227 -0.35,2.492 -0.166,3.725 z" />
            <path
               style="fill:#fff9ec;stroke:#000000"
               inkscape:connector-curvature="0"
               id="path1927"
               d="m 463.201,649.923 c -0.145,-0.652 -0.352,-1.299 -0.674,-1.885 -0.684,-1.252 -1.848,-1.951 -3.25,-2.104 -1.588,-0.172 -3.381,0.107 -4.855,0.672 -1.066,0.408 -2.025,1.523 -2.572,2.486 -0.584,1.023 -0.893,2.191 -0.971,3.363 -0.15,2.221 0.482,4.695 2.086,6.307 1.744,1.752 4.18,1.658 6.229,0.484 2.641,-1.514 4.749,-6.01 4.007,-9.323 z" />
            <path
               style="fill:#fff9ec;stroke:#000000"
               inkscape:connector-curvature="0"
               id="path1929"
               d="m 451.523,656.533 c 0.549,0.5 1.166,0.945 1.859,1.217 1.771,0.695 3.439,-0.162 4.373,-1.723 0.924,-1.545 1.219,-3.623 0.559,-5.32 -0.824,-2.113 -3.389,-3.082 -5.422,-2.098 -1.426,0.691 -2.4,2.018 -2.613,3.588 -0.182,1.349 0.179,3.369 1.244,4.336 z" />
            <path
               style="fill:#fff9ec;stroke:#000000"
               inkscape:connector-curvature="0"
               id="path1931"
               d="m 485.609,654.755 c -0.014,-0.037 -0.027,-0.072 -0.041,-0.109 -1.396,-3.488 -5.602,-3.732 -8.713,-2.65 -1.225,0.426 -2.209,1.664 -2.537,2.904 -0.309,1.17 -0.166,2.439 0.268,3.561 1.006,2.609 3.561,4.189 6.35,3.709 3.306,-0.571 5.743,-4.588 4.673,-7.415 z" />
            <path
               style="fill:#fff9ec;stroke:#000000"
               inkscape:connector-curvature="0"
               id="path1933"
               d="m 487.757,645.414 c -0.006,-0.018 -0.01,-0.035 -0.016,-0.053 -0.619,-1.977 -2.215,-3.553 -3.836,-4.758 -0.965,-0.717 -2.002,-1.336 -3.08,-1.865 -1.059,-0.523 -2.186,-0.84 -3.182,-1.482 -0.25,-0.162 -0.471,-0.303 -0.684,-0.504 -1.91,-1.791 -5.256,-1.707 -7.352,-0.271 -0.967,0.664 -1.654,1.689 -1.605,2.893 0.07,1.699 1.373,3.145 2.578,4.207 1.83,1.613 3.65,2.936 5.15,4.705 1.322,1.557 2.164,4.857 3.75,5.764 4.824,2.752 9.625,-4.177 8.277,-8.636 z" />
            <path
               style="fill:#fff9ec;stroke:#000000"
               inkscape:connector-curvature="0"
               id="path1935"
               d="m 469.802,642.236 c -0.254,-0.969 -0.66,-1.936 -1.367,-2.66 -1,-1.027 -2.414,-1.281 -3.793,-1.227 -1.842,0.074 -3.902,0.102 -5.326,1.453 -0.904,0.861 -1.705,2.293 -2.057,3.492 -1.391,4.74 7.338,6.221 10.357,4.357 1.632,-1.003 2.712,-3.401 2.186,-5.415 z" />
            <path
               style="fill:#fff9ec;stroke:#000000"
               inkscape:connector-curvature="0"
               id="path1937"
               d="m 474.896,648.228 c -0.572,-1.086 -1.336,-2.164 -2.535,-2.598 -1.254,-0.451 -2.57,-0.053 -3.813,0.26 -0.631,0.16 -1.516,0.727 -1.754,1.352 -0.234,0.623 -0.104,1.324 0.072,1.943 0.383,1.344 1.244,2.637 1.336,4.051 0.234,3.568 -2.553,6.475 -0.582,10 4.119,7.363 15.322,-4.732 7.648,-6.365 -1.011,-2.657 0.886,-6.258 -0.372,-8.643 z" />
          </g>
          <path
             style="fill:#fff9ec;stroke:#000000"
             inkscape:connector-curvature="0"
             id="path1941"
             d="m 485.632,654.158 c 0.412,1.783 1.115,3.852 2.604,5.033 0.314,0.25 0.68,0.469 1.072,0.578 0.486,0.137 0.771,-0.059 1.232,-0.195 1.043,-0.309 2.098,-0.557 2.945,-1.285 0.578,-0.496 1.186,-1.035 1.664,-1.646 0.514,-0.652 0.936,-1.455 1.326,-2.176 0.057,-0.104 0.119,-0.203 0.178,-0.307 1.359,-2.447 -0.354,-4.734 -2.369,-6.057 -1.832,-1.201 -4.467,-2.145 -6.629,-1.313 -2.915,1.124 -2.593,4.907 -2.023,7.368 z" />
        </g>
        <g
           id="g1953">
          <path
             style="fill:#fff9ec;stroke:#000000"
             inkscape:connector-curvature="0"
             id="path1945"
             d="m 466.585,747.714 c 0.197,2.777 -1.904,7.725 3.586,6.688 1.629,-2.582 0.371,-4.973 0.357,-7.723 -0.01,-1.379 0.42,-2.77 0.293,-4.143 -0.139,-1.504 -1.377,-2.701 -3.148,-2.756 -1.205,-0.035 -1.684,0.592 -1.861,1.555 -0.398,2.157 0.621,4.252 0.773,6.379 z" />
          <path
             style="fill:#fff9ec;stroke:#000000"
             inkscape:connector-curvature="0"
             id="path1947"
             d="m 471.013,732.728 c 0.029,-1.49 0.229,-2.973 0.609,-4.412 0.447,-1.684 0.957,-3.379 0.553,-5.133 -0.35,-1.516 -1.373,-1.404 -2.611,-1.6 -1.635,-0.26 -3.826,-0.512 -4.738,1.295 -0.807,1.598 0.111,3.494 0.605,5.033 0.939,2.93 1.02,6.299 0.123,9.254 -0.801,2.641 -0.896,3.881 1.871,4.818 5.25,1.785 3.676,-5.434 3.592,-8.297 -0.01,-0.317 -0.01,-0.64 -0.004,-0.958 z" />
          <path
             style="fill:#fff9ec;stroke:#000000"
             inkscape:connector-curvature="0"
             id="path1949"
             d="m 470.316,707.546 c 0.076,-0.258 0.383,-1.494 0.457,-1.752 0.805,-2.789 1.752,-4.922 0.334,-7.82 -1.555,-3.18 -8.184,-2.633 -9.678,0.73 -0.947,2.131 1.35,4.037 1.957,6.146 1.752,6.066 1.072,9.701 -0.166,15.537 -1.113,5.25 9.568,5.939 8.84,0.539 -0.264,-1.953 -1.822,-3.805 -2.154,-5.934 -0.395,-2.52 -0.264,-5.172 0.41,-7.446 z" />
          <path
             style="fill:#fff9ec;stroke:#000000"
             inkscape:connector-curvature="0"
             id="path1951"
             d="m 467.986,665.132 c -6.949,0.023 -5.322,4.379 -5,9.734 0.281,4.639 0.191,9.742 -0.527,14.238 -0.316,1.99 -2.314,4.889 -1.393,6.877 0.521,1.127 3.275,2.711 4.346,3.076 4.164,1.424 8.023,-1.221 7.322,-6.002 -0.889,-6.047 -1.693,-12.51 -0.539,-18.709 0.447,-2.4 1.496,-4.432 -0.191,-6.646 -1.57,-2.057 -3.738,-2.545 -6.389,-2.568" />
        </g>
        <g
           id="g1963">
          <path
             style="fill:#fff9ec;stroke:#000000"
             inkscape:connector-curvature="0"
             id="path1955"
             d="m 447.611,725.292 c -0.471,2.391 -0.02,4.248 -0.027,6.639 -0.004,1.92 -0.893,6.213 2.043,5.6 1.395,-0.293 1.766,-1.869 1.904,-3.084 0.17,-1.514 -0.006,-2.949 -0.006,-4.449 0,-0.67 0.01,-1.346 0.041,-2.002 0.027,-0.582 0.094,-1.15 -0.074,-1.709 -0.072,-0.24 -0.139,-0.471 -0.227,-0.697 -0.394,-1.007 -2.879,-0.546 -3.654,-0.298 z" />
          <path
             style="fill:#fff9ec;stroke:#000000"
             inkscape:connector-curvature="0"
             id="path1957"
             d="m 449.009,712.375 c -0.121,0 -0.271,-0.023 -0.391,0 -0.396,0.074 -0.576,0.586 -0.709,0.918 -0.152,0.385 -0.244,0.793 -0.299,1.203 -0.127,0.924 -0.08,1.867 -0.008,2.795 0.123,1.613 0.428,3.279 0.205,4.896 -0.207,1.518 -0.973,3.107 0.252,4.318 0.795,0.789 1.896,0.736 2.873,0.398 1.135,-0.393 1.223,-1.246 1.365,-2.316 0.082,-0.617 0.156,-1.236 0.223,-1.857 0.131,-1.248 0.225,-2.502 0.281,-3.758 0.056,-1.256 0.074,-2.512 0.055,-3.77 -0.01,-0.641 -0.029,-1.281 -0.059,-1.92 -0.01,-0.217 -0.01,-0.381 -0.24,-0.459 -0.213,-0.074 -0.426,-0.225 -0.643,-0.277 -0.43,-0.105 -0.926,-0.033 -1.369,-0.07 -0.51,-0.041 -1.022,-0.101 -1.536,-0.101 z" />
          <path
             style="fill:#fff9ec;stroke:#000000"
             inkscape:connector-curvature="0"
             id="path1959"
             d="m 451.326,691.621 c -1.275,0.002 -2.693,0.107 -3.805,0.814 -0.758,0.482 -0.953,1.531 -1.258,2.313 -0.408,1.049 0.078,1.938 0.5,2.924 0.469,1.096 0.74,2.266 0.805,3.459 0.074,1.336 -0.127,2.678 -0.127,4.021 0,1.154 -0.045,2.33 -0.363,3.428 -0.25,0.867 -0.461,1.699 -0.387,2.625 0.076,0.955 0.596,1.492 1.375,1.893 0.764,0.393 1.668,0.27 2.508,0.232 0.85,-0.039 1.672,-0.184 2.41,-0.615 1.832,-1.066 0.336,-3.838 0.25,-5.377 -0.113,-2.031 -0.156,-3.936 0.125,-5.936 0.066,-0.482 0.059,-1.01 0.164,-1.482 0.088,-0.402 0.291,-0.775 0.367,-1.184 0.158,-0.84 0.479,-1.621 0.729,-2.449 0.445,-1.473 0.076,-3.164 -1.219,-4.051 -0.641,-0.44 -1.307,-0.617 -2.074,-0.615 z" />
          <path
             style="fill:#fff9ec;stroke:#000000"
             inkscape:connector-curvature="0"
             id="path1961"
             d="m 464.871,665.882 c -0.48,-0.707 -1.76,-1.379 -2.5,-1.75 -0.893,-0.443 -2.748,-0.229 -3.768,-0.244 -2.074,-0.033 -3.557,1.691 -4.242,3.488 -0.035,0.09 -0.068,0.182 -0.098,0.273 -0.504,1.527 -0.475,3.252 -0.4,4.84 0.063,1.355 -0.488,2.738 -1.045,3.971 -1.234,2.725 -3.047,5.119 -4.586,7.67 -2.186,3.621 -3.521,7.176 1.529,9.119 5.422,2.086 5.584,-4.693 6.041,-7.984 0.346,-2.494 1.451,-4.965 2.063,-7.455 0.721,-2.938 1.619,-4.221 3.998,-5.979 1.683,-1.24 4.605,-3.583 3.008,-5.949 z" />
        </g>
        <g
           id="g1973">
          <path
             style="fill:#fff9ec;stroke:#000000"
             inkscape:connector-curvature="0"
             id="path1965"
             d="m 491.621,747.632 c -0.125,-2.375 0.26,-4.68 -2.381,-5.617 -1.371,-0.486 -2.102,-0.479 -2.156,1.08 -0.033,0.975 0.127,1.953 0.273,2.912 0.123,0.809 0.285,1.492 0.514,2.25 0.539,1.791 0.352,3.465 0.609,5.283 0.229,1.611 1.098,2.715 2.848,2.299 1.22,-2.334 0.425,-5.705 0.293,-8.207 z" />
          <path
             style="fill:#fff9ec;stroke:#000000"
             inkscape:connector-curvature="0"
             id="path1967"
             d="m 490.314,734.195 c -0.344,-1.877 -0.855,-3.934 -0.766,-5.854 0.041,-0.883 0.402,-1.629 0.291,-2.551 -0.057,-0.479 -0.332,-2.336 -0.791,-2.584 -1.508,-0.816 -4.24,0.139 -4.92,1.67 -0.932,2.104 0.891,4.031 1.438,6.008 0.855,3.096 0.24,11.773 2.818,12.736 5.301,1.979 2.371,-7.019 1.93,-9.425 z" />
          <path
             style="fill:#fff9ec;stroke:#000000"
             inkscape:connector-curvature="0"
             id="path1969"
             d="m 477.378,698.654 c -0.559,2.662 1.178,3.906 2.424,6.023 2.213,3.76 2.252,9.455 2.068,13.762 -0.094,2.225 -1.396,4.789 0.689,6.332 1.379,1.021 4.928,0.998 6.244,0.063 2.428,-1.727 1.129,-4.139 -0.176,-5.945 -1.393,-1.922 -1.918,-3.693 -2.256,-6.006 -0.736,-5.031 3.318,-11.627 -1.154,-15.846 -2.661,-2.512 -6.973,-2.502 -7.839,1.617 z" />
          <path
             style="fill:#fff9ec;stroke:#000000"
             inkscape:connector-curvature="0"
             id="path1971"
             d="m 481.238,673.876 c 0,-3.105 0.533,-6.432 -0.354,-9.465 -1.123,-3.842 -4.752,-2.939 -7.584,-1.389 -2.727,1.492 -3.064,5.379 -1.711,7.936 2.932,5.539 3.459,9.809 3.713,15.18 0.195,4.139 -1.633,9.615 2.998,11.516 5.893,2.418 8.58,-2.24 7.07,-7.021 -0.805,-2.553 -3.367,-4.998 -3.879,-7.686 -0.542,-2.864 -0.253,-6.092 -0.253,-9.071 z" />
        </g>
        <g
           id="g1983">
          <path
             style="fill:#fff9ec;stroke:#000000"
             inkscape:connector-curvature="0"
             id="path1975"
             d="m 510.871,733.216 c -0.4,-0.285 -1.447,0.506 -1.752,0.832 -0.441,0.471 -0.893,1.07 -0.498,1.666 0.832,1.252 1.162,2.729 1.5,4.002 0.396,1.494 0.285,3.027 0.668,4.5 0.498,1.916 2.068,2.145 2.832,0.834 0.461,-0.791 0.688,-2.121 0.332,-2.918 -0.424,-0.949 -0.951,-2.164 -1.166,-3.25 -0.281,-1.428 0.029,-5.668 -2.082,-5.666" />
          <path
             style="fill:#fff9ec;stroke:#000000"
             inkscape:connector-curvature="0"
             id="path1977"
             d="m 508.376,720.882 c -0.096,-0.975 0.109,-2.697 -0.684,-3.447 -0.902,-0.852 -2.973,-0.531 -3.824,0.195 -0.93,0.795 -1.252,2.48 -0.902,3.59 0.4,1.27 1.379,2.271 1.834,3.525 0.904,2.482 1.094,9.875 3.814,10.393 5.85,1.117 1.621,-5.719 0.811,-7.549 -0.914,-2.06 -0.824,-4.435 -1.049,-6.707 z" />
          <path
             style="fill:#fff9ec;stroke:#000000"
             inkscape:connector-curvature="0"
             id="path1979"
             d="m 494.078,698.939 c 1.021,1.682 2.391,3.344 3.182,5.193 0.777,1.814 1.496,3.813 2.111,5.758 0.686,2.174 -0.277,5.637 0.551,7.438 1.408,3.063 8.428,-0.125 8.211,-2.457 -0.145,-1.566 -2.014,-3.313 -2.83,-4.668 -0.998,-1.656 -1.266,-3.207 -1.738,-5.07 -1.025,-4.053 0.932,-11.398 -5.045,-12 -1.42,-0.143 -3.6,-0.543 -4.334,0.9 -0.849,1.672 -1.11,3.254 -0.108,4.906 z" />
          <path
             style="fill:#fff9ec;stroke:#000000"
             inkscape:connector-curvature="0"
             id="path1981"
             d="m 481.232,664.285 c -0.17,3.834 3.598,9.117 5.012,12.801 1.736,4.516 2.555,8.84 3.482,13.492 0.275,1.379 0.621,3.961 2.244,4.512 1.352,0.461 4.15,0.877 5.9,-0.457 2.578,-1.963 2.215,-5.578 -0.057,-8.721 -1.975,-2.732 -2.896,-5.162 -3.832,-8.25 -1.113,-3.668 -1.918,-7.584 -2.236,-11.346 -0.111,-1.299 0.174,-3.213 -0.457,-4.314 -1.328,-2.316 -2.672,-4.602 -5.58,-3.15 -1.847,0.923 -4.376,3.192 -4.476,5.433 z" />
        </g>
        <g
           id="g1991">
          <path
             style="fill:#fff9ec;stroke:#000000"
             inkscape:connector-curvature="0"
             id="path1985"
             d="m 528.955,686.425 c -0.934,-0.754 -1.713,-1.674 -2.697,-2.371 -0.535,-0.377 -1.125,-0.713 -1.77,-0.859 -0.707,-0.16 -1.199,0.025 -1.818,0.357 -0.279,0.15 -0.604,0.4 -0.83,0.609 -0.553,0.51 -0.807,1.178 -0.633,1.936 0.152,0.662 0.791,1.037 1.32,1.379 1.928,1.246 3.1,1.959 4.418,3.752 0.82,1.117 1.855,3.453 3.332,3.406 1.588,-0.053 3.291,-1.99 2.885,-3.418 -0.291,-0.875 -0.541,-1.166 -1.791,-2.416 -0.834,-0.834 -1.487,-1.625 -2.416,-2.375 z" />
          <path
             style="fill:#fff9ec;stroke:#000000"
             inkscape:connector-curvature="0"
             id="path1987"
             d="m 518.919,675.083 c -0.926,-1.199 -1.223,-2.67 -1.709,-4.057 -0.41,-1.164 -2.018,-2.234 -3.1,-2.633 -0.457,-0.168 -1.049,-0.273 -1.533,-0.344 -1.156,-0.172 -2.371,-0.482 -3.203,0.51 -0.725,0.861 -1.209,2.145 -1.254,3.268 -0.123,3.107 2.109,3.77 4.313,5.061 1.738,1.02 3.203,2.473 4.254,4.189 0.908,1.484 1.01,4.43 2.678,5.311 1.738,0.92 4.701,-0.484 5.455,-2.25 1.002,-2.344 -0.383,-4.561 -1.957,-5.943 -1.143,-1.002 -2.998,-1.889 -3.944,-3.112 z" />
          <path
             style="fill:#fff9ec;stroke:#000000"
             inkscape:connector-curvature="0"
             id="path1989"
             d="m 502.564,656.689 c -1.629,-1.172 -2.789,-2.898 -4.48,-3.984 -0.857,-0.551 -1.75,-0.799 -2.758,-0.83 -0.996,-0.029 -2.223,-0.266 -3.092,0.371 -2.076,1.527 -3.191,5.111 -1.426,7.199 2.307,2.727 6.332,3.412 9.063,5.688 2.697,2.248 3.592,7.844 7.943,5.943 3.146,-1.373 6.723,-4.775 1.557,-8.943 -2.778,-2.241 -4.026,-3.446 -6.807,-5.444 z" />
        </g>
      </g>
    </g>
  </g>
</svg>
