<?xml version="1.0" encoding="UTF-8" standalone="no"?>
<!-- Created with Inkscape (http://www.inkscape.org/) -->

<svg
   xmlns:dc="http://purl.org/dc/elements/1.1/"
   xmlns:cc="http://creativecommons.org/ns#"
   xmlns:rdf="http://www.w3.org/1999/02/22-rdf-syntax-ns#"
   xmlns:svg="http://www.w3.org/2000/svg"
   xmlns="http://www.w3.org/2000/svg"
   xmlns:sodipodi="http://sodipodi.sourceforge.net/DTD/sodipodi-0.dtd"
   xmlns:inkscape="http://www.inkscape.org/namespaces/inkscape"
   width="20.431282mm"
   height="91.045639mm"
   viewBox="0 0 20.431282 91.045639"
   version="1.1"
   id="svg5580"
   inkscape:version="0.92.4 (5da689c313, 2019-01-14)"
   sodipodi:docname="lleg.svg">
  <defs
     id="defs5574" />
  <sodipodi:namedview
     id="base"
     pagecolor="#ffffff"
     bordercolor="#666666"
     borderopacity="1.0"
     inkscape:pageopacity="0.0"
     inkscape:pageshadow="2"
     inkscape:zoom="0.35"
     inkscape:cx="-107.10398"
     inkscape:cy="963.48332"
     inkscape:document-units="mm"
     inkscape:current-layer="layer1"
     showgrid="false"
     inkscape:window-width="1225"
     inkscape:window-height="768"
     inkscape:window-x="0"
     inkscape:window-y="0"
     inkscape:window-maximized="1" />
  <metadata
     id="metadata5577">
    <rdf:RDF>
      <cc:Work
         rdf:about="">
        <dc:format>image/svg+xml</dc:format>
        <dc:type
           rdf:resource="http://purl.org/dc/dcmitype/StillImage" />
        <dc:title></dc:title>
      </cc:Work>
    </rdf:RDF>
  </metadata>
  <g
     inkscape:label="Layer 1"
     inkscape:groupmode="layer"
     id="layer1"
     transform="translate(54.816833,-312.70932)">
    <path
       style="fill:#fff9ec;stroke:#000000;stroke-width:0.26458332"
       inkscape:connector-curvature="0"
       id="path419"
       d="m -53.570413,391.80947 c 0.776287,0.28152 1.589352,-0.92075 2.068512,-1.34355 0.3937,-0.34766 1.07368,-0.77973 1.599407,-0.89191 0.530489,-0.11324 0.880533,-0.005 1.323181,0.26458 0.828675,0.50535 1.459706,1.30016 2.317221,1.76742 0.200819,0.10901 0.360891,0.19182 0.584994,0.25902 0.315647,0.0939 0.35507,0.0992 0.5969,-0.009 0.257968,-0.11535 0.555095,-0.36327 0.735806,-0.58658 0.409839,-0.50482 0.331787,-1.15914 0.01667,-1.68619 -0.35031,-0.58601 -0.558008,-1.19931 -1.083206,-1.66075 -0.899848,-0.79163 -2.057135,-2.12195 -3.281362,-2.28309 -0.734483,-0.0971 -1.555221,0.0537 -2.208477,0.32253 -0.669131,0.2749 -1.240896,0.79931 -1.74625,1.29963 -0.397669,0.3937 -0.664634,0.84535 -0.98425,1.29646 -0.407723,0.57468 -0.231246,1.20915 -0.359304,1.84071 -0.09895,0.48657 -0.161132,1.19962 0.420158,1.41102 z" />
    <path
       style="fill:#fff9ec;stroke:#000000;stroke-width:0.26458332"
       inkscape:connector-curvature="0"
       id="path421"
       d="m -43.310665,382.89619 c 0.0077,-3.72084 0.72099,-7.42077 1.096962,-11.11515 0.109538,-1.07288 0.101865,-2.10846 0.261409,-3.175 1.431396,-9.54934 2.839508,-19.43761 3.586427,-29.19571 0.344752,-4.51247 0.419629,-9.27338 1.572419,-13.66996 0.321468,-1.22635 1.013883,-2.24526 1.32662,-3.41075 0.460905,-1.71873 -1.933839,-2.89348 -3.310466,-2.43972 -1.324504,0.43603 -1.410759,1.76583 -1.290373,2.97233 0.311679,3.11256 0.144727,5.97218 -0.02937,9.1313 -0.290512,5.26733 -1.080029,10.47644 -1.5875,15.70355 -0.940064,9.6856 -2.054225,18.89972 -3.40704,28.33979 -0.382322,2.66964 -1.654968,6.67543 -1.093787,9.36995 0.197908,0.94985 1.755775,5.58006 2.781565,4.3651 0.836612,-0.99272 0.280723,-3.46949 0.182033,-4.63286 -0.06429,-0.74824 -0.09102,-1.49595 -0.0889,-2.24287 z" />
    <path
       style="fill:#fff9ec;stroke:#000000;stroke-width:0.26458332"
       inkscape:connector-curvature="0"
       id="path427"
       d="m -45.413044,368.40946 c 0.439737,-4.24842 0.922866,-8.4926 1.328473,-12.74339 0.165893,-1.73594 0.343693,-3.47054 0.526521,-5.20436 0.178329,-1.68883 0.360627,-3.37714 0.52361,-5.0673 0.413808,-4.30927 0.506412,-8.66034 1.134798,-12.94659 0.329671,-2.24684 0.806714,-4.48971 1.637506,-6.60797 0.825236,-2.10476 7.832725,-10.04226 2.952221,-11.34771 -1.329002,-0.3556 -3.118115,0.0728 -3.574521,-0.48948 -0.813858,-1.00251 -1.576652,-1.3544 -3.046412,-1.06151 -1.227932,0.24447 -2.053432,0.69771 -3.449638,0.49186 -1.898121,-0.27966 -3.756554,0.63209 -3.697023,3.31444 0.02461,1.10225 1.103842,1.88621 1.626923,2.7641 1.340908,2.24948 1.402556,5.25092 1.548077,7.8486 0.337079,6.02297 0.183356,11.95731 -0.267229,17.97711 -0.525727,7.02495 -0.645054,14.08192 -1.241954,21.09946 -0.400315,4.70562 -0.141023,9.63507 -2.109523,14.04303 -0.821796,1.84123 -2.684463,3.19352 -3.098271,5.22076 -0.139435,0.68315 -0.12991,2.6117 0.853017,2.80802 0.774435,0.15505 1.122098,-0.95647 1.436952,-1.46235 0.459846,-0.73951 1.264179,-1.29964 2.156089,-1.27529 0.893498,0.0249 1.594909,0.63764 2.416175,0.90011 0.845344,0.26987 1.987815,0.0852 2.60059,-0.60352 0.299244,-0.33681 0.457729,-0.87286 0.42889,-1.32238 -0.132292,-2.05052 -1.25095,-1.18798 -1.454944,-3.63802 -0.198438,-2.38125 0.01561,-4.7252 0.21246,-6.9514 0.169863,-1.91664 0.359304,-3.8317 0.557213,-5.74622 z" />
    <g
       transform="matrix(0.26458333,0,0,0.26458333,-125.29737,72.285933)"
       id="g489">
      <g
         id="g441">
        <path
           d="m 313.24,1213.08 c -0.318,-0.463 -1.236,-1.354 -1.791,-1.666 -0.932,-0.525 -1.822,-1.123 -2.695,-1.74 -1.939,-1.375 -3.775,-2.889 -5.682,-4.307 -3.56,-2.652 -8.009,-4.43 -12.489,-4.908 -2.231,-0.238 -4.381,-0.041 -6.347,1.006 -4.625,2.467 -9.45,3.814 -13.209,6.807 -3.073,2.445 -0.907,9.207 -1.291,12.66 -1.125,10.125 3.5,16.25 12.125,15.625 8.041,-0.585 40.455,-10.286 31.379,-23.477 z"
           id="path431"
           inkscape:connector-curvature="0"
           style="fill:#fff9ec;stroke:#000000" />
        <path
           d="m 311.933,1208.574 c -0.902,-0.686 -1.82,-1.201 -2.877,-1.512 -0.912,-0.27 -1.611,0.053 -2.432,0.588 -0.502,0.328 -0.725,1.02 -0.832,1.617 -0.283,1.566 0.08,3.348 0.609,4.805 0.986,2.723 3.674,6.947 6.621,7.025 2.662,0.07 4.602,-5.422 2.992,-7.441 -0.531,-0.668 -1.26,-1.102 -1.783,-1.768 -0.94,-1.193 -1.11,-2.41 -2.298,-3.314 z"
           id="path433"
           inkscape:connector-curvature="0"
           style="fill:#fff9ec;stroke:#000000" />
        <path
           d="m 311.511,1216.339 c 0.547,-5.617 -4.553,-12.469 -9.805,-9.285 -1.526,0.926 -2.229,2.73 -2.341,4.59 -0.241,4.049 2.104,8.727 5.759,9.832 3.596,1.088 5.911,-0.24 6.387,-5.137 z"
           id="path435"
           inkscape:connector-curvature="0"
           style="fill:#fff9ec;stroke:#000000" />
        <path
           d="m 291.974,1225.47 c 4.321,2.068 9.311,1.086 11.5,-3.9 0.977,-2.223 1.197,-4.801 0.813,-7.221 -0.357,-2.242 -1.645,-5.498 -3.576,-6.598 -0.828,-0.471 -1.888,-0.693 -2.726,-1.137 -2.837,-1.506 -6.354,-2.859 -9.12,-0.469 -1.724,1.492 -2.442,3.963 -2.602,6.301 -0.32,4.716 1.492,11.007 5.711,13.024 z"
           id="path437"
           inkscape:connector-curvature="0"
           style="fill:#fff9ec;stroke:#000000" />
        <path
           d="m 286.111,1207.023 c -9.297,-1.588 -15.148,18.523 -5.637,22.242 6.961,2.721 9.633,-3.465 10.635,-9.469 1.353,-8.102 1.978,-13.186 -6.998,-12.773"
           id="path439"
           inkscape:connector-curvature="0"
           style="fill:#fff9ec;stroke:#000000" />
      </g>
      <g
         id="g453">
        <path
           d="m 328.455,1226.855 c -0.82,2.23 -6.08,2.002 -8.393,0.514 -2.361,-1.52 -4.84,-3.775 -4.967,-6.723 -0.068,-1.572 -0.547,-6.332 2.277,-5.053 1.824,0.824 3.773,2.561 5.496,3.621 1.871,1.154 3.367,2.791 4.676,4.574 0.967,1.321 1.182,2.329 0.911,3.067 z"
           id="path443"
           inkscape:connector-curvature="0"
           style="fill:#fff9ec;stroke:#000000" />
        <path
           d="m 320.867,1229.242 c 1.871,-0.934 3.104,-3.219 3.246,-5.428 0.172,-2.635 -1.984,-3.535 -3.98,-4.539 -1.736,-0.873 -3.496,-1.877 -4.871,-3.271 -1.287,-1.305 -2.189,-3.83 -3.584,-1.066 -1.063,2.105 -0.809,4.701 -0.15,6.885 0.918,3.039 3.053,6.809 6.346,7.699 1.106,0.298 2.118,0.157 2.993,-0.28 z"
           id="path445"
           inkscape:connector-curvature="0"
           style="fill:#fff9ec;stroke:#000000" />
        <path
           d="m 315.46,1230.333 c 0.512,-0.084 1.033,-0.203 1.566,-0.357 2.811,-0.816 5.758,-4 3.383,-6.705 -1.039,-1.184 -2.576,-1.928 -3.658,-3.119 -1.217,-1.34 -2.111,-2.926 -3.213,-4.355 -1.15,-1.49 -1.791,-2.945 -3.912,-2.791 -2.051,0.15 -3.346,1.76 -4.279,3.436 -0.869,1.557 -2.334,3.168 -2.482,5.025 -0.232,2.906 2.545,5.314 4.654,6.854 2.522,1.837 5.082,2.481 7.941,2.012 z"
           id="path447"
           inkscape:connector-curvature="0"
           style="fill:#fff9ec;stroke:#000000" />
        <path
           d="m 306.115,1218.119 c 0.057,-0.959 -0.018,-1.816 -1.025,-2.574 -1.891,-1.42 -4.576,0 -6.308,1.014 -1.783,1.045 -4.438,2.076 -4.841,4.328 -0.394,2.201 0.541,4.055 1.575,5.896 1.041,1.857 1.314,4.018 2.568,5.855 2.035,2.984 5.017,5.217 8.774,4.98 3.234,-0.203 5.598,-3.039 6.102,-6.145 0.473,-2.918 -1.229,-3.898 -3.121,-5.607 -1.363,-1.229 -3.711,-4.189 -3.803,-5.996 -0.031,-0.617 0.046,-1.201 0.079,-1.751 z"
           id="path449"
           inkscape:connector-curvature="0"
           style="fill:#fff9ec;stroke:#000000" />
        <path
           d="m 293.881,1220.587 c -0.127,-0.541 -0.32,-1.064 -0.662,-1.545 -1.214,-1.703 -3.43,-3.295 -5.608,-3.092 -2.561,0.24 -5.207,2.072 -6.414,4.283 -1.209,2.217 -1.598,5.096 -0.446,7.416 1.46,2.945 3.536,0.484 4.832,4.502 0.406,1.262 0.761,2.656 0.751,3.99 -0.007,1.014 -0.613,2.426 -0.037,3.363 1.125,1.832 4.865,2.152 6.716,2.08 2.54,-0.102 5.276,-1.047 7.069,-2.902 2.297,-2.377 3.773,-5.285 1.4,-8.113 -1.881,-2.24 -4.856,-3.432 -6.54,-5.861 -0.844,-1.218 -0.734,-2.73 -1.061,-4.121 z"
           id="path451"
           inkscape:connector-curvature="0"
           style="fill:#fff9ec;stroke:#000000" />
      </g>
      <g
         id="g465">
        <path
           d="m 336.453,1235.845 c -3.209,0.799 -6.566,-1.664 -8.203,-4.236 -0.854,-1.342 -3.176,-6.646 0.365,-6.488 1.756,0.078 3.65,2.746 4.883,3.771 1.262,1.049 2.418,0.746 3.705,1.408 2.047,1.055 1.392,5.01 -0.75,5.545 z"
           id="path455"
           inkscape:connector-curvature="0"
           style="fill:#fff9ec;stroke:#000000" />
        <path
           d="m 330.806,1236.382 c 1.502,-1.068 1.943,-3.563 0.859,-5.201 -0.832,-1.26 -2.039,-1.59 -3.301,-2.215 -1.959,-0.969 -4.953,-2.641 -7.295,-2.303 -0.33,1.254 -1.963,0.775 -1.535,2.623 0.277,1.203 1.695,2.283 2.582,3.025 1.697,1.424 4.121,4.057 6.355,4.514 0.935,0.192 1.724,-0.01 2.335,-0.443 z"
           id="path457"
           inkscape:connector-curvature="0"
           style="fill:#fff9ec;stroke:#000000" />
        <path
           d="m 317.001,1235.337 c 2.539,1.252 6.408,2.229 9.176,1.268 1.678,-0.584 3.17,-3.117 1.633,-4.656 -0.572,-0.574 -1.609,-0.537 -2.346,-0.713 -1.301,-0.309 -2.295,-0.975 -3.502,-1.49 -0.793,-0.34 -1.451,-0.508 -2.225,-0.887 -1.746,-0.854 -3.721,-2.055 -5.381,-0.291 -2.273,2.414 0.384,5.654 2.645,6.769 z"
           id="path459"
           inkscape:connector-curvature="0"
           style="fill:#fff9ec;stroke:#000000" />
        <path
           d="m 309.142,1237.123 c 0.727,0.455 1.449,0.889 2.137,1.463 2.574,2.146 6.287,4.512 9.559,2.381 1.293,-0.842 3.74,-3.434 2.531,-5.197 -1.494,-2.176 -4.088,-2.779 -6.375,-3.715 -1.512,-0.619 -2.416,-2.055 -3.758,-2.783 -1.414,-0.77 -2.686,0.168 -4.119,0.35 -3.119,0.396 -3.271,5.172 -1.107,6.746 0.374,0.272 0.753,0.516 1.132,0.755 z"
           id="path461"
           inkscape:connector-curvature="0"
           style="fill:#fff9ec;stroke:#000000" />
        <path
           d="m 310.082,1238.746 c 0.598,-2.436 -1.578,-2.773 -3.385,-3.234 -2.645,-0.674 -4.246,-2.773 -6.693,-3.734 -3.818,-1.5 -9.536,1.953 -9.649,6.084 -0.034,1.24 0.317,2.494 0.976,3.543 0.932,1.488 2.001,1.539 3.681,1.221 2.567,-0.486 3.924,1.354 4.53,3.488 0.684,2.41 2.576,3.08 4.664,1.777 2.535,-1.586 3.514,-3.645 4.705,-6.27 0.368,-0.815 0.921,-1.858 1.171,-2.875 z"
           id="path463"
           inkscape:connector-curvature="0"
           style="fill:#fff9ec;stroke:#000000" />
      </g>
      <g
         id="g477">
        <path
           d="m 319.492,1244.544 c -0.295,-0.311 -0.688,-0.611 -1.197,-0.91 -1.781,-1.039 -3.998,-1.414 -5.686,-2.59 -1.307,-0.908 -3.293,-3.963 -5.193,-2.25 -0.605,0.545 -0.84,1.307 -1.477,1.879 -0.676,0.604 -1.535,1.025 -2.178,1.668 -1.402,1.408 -1.521,3.314 0.271,4.551 1.135,0.785 2.117,0.217 3.244,0.609 2.547,0.891 3.293,4.146 6.332,4.668 3.076,0.529 5.73,-0.596 6.354,-3.402 0.401,-1.805 0.614,-3.082 -0.47,-4.223 z"
           id="path467"
           inkscape:connector-curvature="0"
           style="fill:#fff9ec;stroke:#000000" />
        <path
           d="m 332.806,1231.746 c -0.02,0.148 -0.027,0.305 -0.023,0.475 0.043,1.826 2.143,3.9 3.75,4.686 1.184,0.58 2.543,0.168 2.982,-1.184 1.428,-4.39 -6.219,-7.682 -6.709,-3.977 z"
           id="path469"
           inkscape:connector-curvature="0"
           style="fill:#fff9ec;stroke:#000000" />
        <path
           d="m 332.423,1239.138 c 0.854,0.328 1.801,0.285 2.508,-0.463 1.434,-1.51 0.383,-4.098 -0.775,-5.381 -1.365,-1.516 -4.232,-2.443 -5.959,-0.885 -0.482,0.434 -0.65,1.137 -0.504,1.807 0.365,1.682 2.475,3.342 3.754,4.357 0.295,0.235 0.629,0.43 0.976,0.565 z"
           id="path471"
           inkscape:connector-curvature="0"
           style="fill:#fff9ec;stroke:#000000" />
        <path
           d="m 327.539,1241.027 c 0.33,0.168 0.703,0.291 1.164,0.355 1.754,0.242 2.602,-1.416 2.43,-2.896 -0.15,-1.314 -1.057,-2.52 -2.002,-3.387 -1.863,-1.711 -5.205,-2.691 -5.869,0.639 -0.357,1.803 1.285,2.834 2.504,3.896 0.655,0.571 1.136,1.067 1.773,1.393 z"
           id="path473"
           inkscape:connector-curvature="0"
           style="fill:#fff9ec;stroke:#000000" />
        <path
           d="m 322.91,1242.917 c 0.41,0.299 0.699,0.801 1.121,1.031 1.051,0.574 1.791,-0.135 2.02,-1.145 0.51,-2.246 0.854,-3.934 -1.143,-5.553 -1.389,-1.127 -2.602,-2.246 -4.332,-2.814 -1.973,-0.648 -5.322,1.814 -4.943,3.998 0.168,0.957 1,1.105 1.729,1.566 1.219,0.771 2.496,1.248 3.754,1.945 0.572,0.318 1.215,0.578 1.746,0.936 0.016,0.013 0.032,0.025 0.048,0.036 z"
           id="path475"
           inkscape:connector-curvature="0"
           style="fill:#fff9ec;stroke:#000000" />
      </g>
      <g
         id="g487">
        <path
           d="m 338.306,1241.205 c 1.98,0.703 6.135,-0.393 4.377,-3.305 -1.086,-1.797 -5.879,-5.676 -7.455,-1.953 -0.68,1.601 1.633,4.746 3.078,5.258 z"
           id="path479"
           inkscape:connector-curvature="0"
           style="fill:#fff9ec;stroke:#000000" />
        <path
           d="m 336.388,1244.64 c 2.645,0.375 4.154,-2.613 3.064,-4.939 -0.621,-1.324 -2.182,-2.35 -3.34,-3.07 -2.078,-1.291 -4.535,-0.574 -4.51,2.293 0.023,2.419 2.501,5.39 4.786,5.716 z"
           id="path481"
           inkscape:connector-curvature="0"
           style="fill:#fff9ec;stroke:#000000" />
        <path
           d="m 328.076,1243.123 c 1.85,2.334 7.816,4.045 7.939,0.373 0.102,-3.031 -2.904,-6.143 -5.996,-5.834 -3.711,0.367 -4.076,2.767 -1.943,5.461 z"
           id="path483"
           inkscape:connector-curvature="0"
           style="fill:#fff9ec;stroke:#000000" />
        <path
           d="m 326.921,1245.027 c 2.783,1.604 5.893,4.025 6.426,-0.807 0.117,-1.055 -3.162,-2.93 -3.943,-3.266 -1.492,-0.645 -4.98,-1.416 -5.736,0.539 -0.862,2.233 1.886,2.745 3.253,3.534 z"
           id="path485"
           inkscape:connector-curvature="0"
           style="fill:#fff9ec;stroke:#000000" />
      </g>
    </g>
  </g>
</svg>
