<?xml version="1.0" encoding="UTF-8" standalone="no"?>
<!-- Created with Inkscape (http://www.inkscape.org/) -->

<svg
   xmlns:dc="http://purl.org/dc/elements/1.1/"
   xmlns:cc="http://creativecommons.org/ns#"
   xmlns:rdf="http://www.w3.org/1999/02/22-rdf-syntax-ns#"
   xmlns:svg="http://www.w3.org/2000/svg"
   xmlns="http://www.w3.org/2000/svg"
   xmlns:sodipodi="http://sodipodi.sourceforge.net/DTD/sodipodi-0.dtd"
   xmlns:inkscape="http://www.inkscape.org/namespaces/inkscape"
   width="10.700144mm"
   height="9.7562742mm"
   viewBox="0 0 10.700144 9.7562742"
   version="1.1"
   id="svg4371"
   inkscape:version="0.92.4 (5da689c313, 2019-01-14)"
   sodipodi:docname="manubrium.svg">
  <defs
     id="defs4365" />
  <sodipodi:namedview
     id="base"
     pagecolor="#ffffff"
     bordercolor="#666666"
     borderopacity="1.0"
     inkscape:pageopacity="0.0"
     inkscape:pageshadow="2"
     inkscape:zoom="0.35"
     inkscape:cx="-528.35068"
     inkscape:cy="618.43702"
     inkscape:document-units="mm"
     inkscape:current-layer="layer1"
     showgrid="false"
     inkscape:window-width="1225"
     inkscape:window-height="768"
     inkscape:window-x="0"
     inkscape:window-y="0"
     inkscape:window-maximized="1" />
  <metadata
     id="metadata4368">
    <rdf:RDF>
      <cc:Work
         rdf:about="">
        <dc:format>image/svg+xml</dc:format>
        <dc:type
           rdf:resource="http://purl.org/dc/dcmitype/StillImage" />
        <dc:title></dc:title>
      </cc:Work>
    </rdf:RDF>
  </metadata>
  <g
     inkscape:label="Layer 1"
     inkscape:groupmode="layer"
     id="layer1"
     transform="translate(-177.5904,-302.70519)">
    <path
       style="fill:#fff9ec;stroke:#000000;stroke-width:0.26458332"
       inkscape:connector-curvature="0"
       id="path743"
       d="m 182.86563,312.31722 c 0.54531,0.0534 1.12712,-0.0775 1.46791,-0.40693 0.51646,-0.499 0.82285,-1.26841 1.06521,-1.90261 0.19579,-0.51197 0.58367,-1.09961 1.02473,-1.43405 0.60325,-0.45693 1.42425,-0.39846 1.65471,-1.28878 0.1733,-0.66887 0.0431,-1.72852 -0.29766,-2.31802 -0.28125,-0.48683 -1.07289,-1.01494 -1.53247,-1.35228 -0.58764,-0.43074 -1.3798,-0.92631 -2.14101,-0.70115 -0.41407,0.1225 -0.59398,0.55827 -1.066,0.6014 -0.57521,0.0524 -0.80248,-0.45032 -1.2835,-0.61886 -1.02102,-0.35772 -2.3704,1.05516 -3.15118,1.65126 -0.5596,0.42704 -0.89826,1.18058 -0.88318,1.88225 0.0101,0.45694 0.11324,1.05542 0.38814,1.4396 0.29819,0.41698 0.87233,0.52599 1.29858,0.79163 0.50032,0.31142 0.81809,0.45985 1.08479,1.00965 0.50562,1.0422 1.03505,2.51619 2.37093,2.64689 z" />
  </g>
</svg>
