<?xml version="1.0" encoding="UTF-8" standalone="no"?>
<!-- Created with Inkscape (http://www.inkscape.org/) -->

<svg
   xmlns:dc="http://purl.org/dc/elements/1.1/"
   xmlns:cc="http://creativecommons.org/ns#"
   xmlns:rdf="http://www.w3.org/1999/02/22-rdf-syntax-ns#"
   xmlns:svg="http://www.w3.org/2000/svg"
   xmlns="http://www.w3.org/2000/svg"
   xmlns:sodipodi="http://sodipodi.sourceforge.net/DTD/sodipodi-0.dtd"
   xmlns:inkscape="http://www.inkscape.org/namespaces/inkscape"
   width="53.989334mm"
   height="41.874828mm"
   viewBox="0 0 53.989334 41.874828"
   version="1.1"
   id="svg3541"
   inkscape:version="0.92.4 (5da689c313, 2019-01-14)"
   sodipodi:docname="pelvis.svg">
  <defs
     id="defs3535" />
  <sodipodi:namedview
     id="base"
     pagecolor="#ffffff"
     bordercolor="#666666"
     borderopacity="1.0"
     inkscape:pageopacity="0.0"
     inkscape:pageshadow="2"
     inkscape:zoom="0.35"
     inkscape:cx="-484.67245"
     inkscape:cy="-182.39732"
     inkscape:document-units="mm"
     inkscape:current-layer="layer1"
     showgrid="false"
     inkscape:window-width="1225"
     inkscape:window-height="768"
     inkscape:window-x="0"
     inkscape:window-y="0"
     inkscape:window-maximized="1" />
  <metadata
     id="metadata3538">
    <rdf:RDF>
      <cc:Work
         rdf:about="">
        <dc:format>image/svg+xml</dc:format>
        <dc:type
           rdf:resource="http://purl.org/dc/dcmitype/StillImage" />
        <dc:title />
      </cc:Work>
    </rdf:RDF>
  </metadata>
  <g
     inkscape:label="Layer 1"
     inkscape:groupmode="layer"
     id="layer1"
     transform="translate(-1.6778004,-2.0710993)">
    <g
       transform="matrix(0.26458333,0,0,0.26458333,-41.670259,-133.60605)"
       id="g2097">
      <g
         id="g2073">
        <rect
           style="fill:#fff9ec;stroke:#000000"
           id="rect2061"
           height="25.25"
           width="6"
           y="620.716"
           x="262.621" />
        <path
           style="fill:#f4efe2;stroke:#000000"
           inkscape:connector-curvature="0"
           id="path2063"
           d="m 196.189,518.594 c -7.304,3.338 -25.498,-2.957 -23.967,11.367 0.643,5.984 8.252,8.793 10.52,14.146 4.166,9.844 1.459,21.959 5.959,31.32 1.805,3.752 4.499,6.51 5.828,10.533 0.191,0.582 0.314,1.209 0.396,1.863 0.399,3.254 -0.248,7.225 1.305,10.07 1.954,3.58 7.544,7.566 10.678,10.377 7.442,6.672 18.47,10.063 28.173,11.484 5.292,0.773 16.453,2.426 22.995,-0.203 -7.436,-1.102 -14.596,-2.254 -21.384,-6.381 -2.414,-1.469 -4.648,-3.225 -6.588,-5.264 -1.194,-1.246 -2.281,-2.596 -3.23,-4.051 -1.293,-1.986 -2.32,-4.135 -3.086,-6.377 -0.251,-0.734 -1.379,-7.166 -1.572,-7.223 6.632,1.93 17.221,3.986 19.597,-3.127 3.229,-9.67 -2.447,-16.666 2.609,-26.692 3.795,-7.529 1.664,-12.155 -2.45,-16.297 -2.153,-2.151 -4.835,-4.176 -7.492,-6.415 -0.404,-0.341 -0.794,-0.703 -1.172,-1.082 -4.025,-3.978 -6.724,-9.911 -10.834,-13.905 -1.498,-1.438 -3.184,-2.619 -5.188,-3.354 -5.218,-1.909 -11.157,-1.104 -16.33,-2.951 -0.456,-0.163 -0.907,-0.322 -1.356,-0.479 -0.956,1.056 -2.018,2.005 -3.411,2.641 z" />
        <path
           style="fill:#f4efe2;stroke:#000000"
           inkscape:connector-curvature="0"
           id="path2065"
           d="m 296.265,619.88 c 9.705,-1.42 20.73,-4.813 28.174,-11.484 3.133,-2.811 8.723,-6.795 10.678,-10.377 1.553,-2.846 0.904,-6.816 1.305,-10.068 0.08,-0.656 0.203,-1.283 0.396,-1.865 1.328,-4.023 4.023,-6.781 5.826,-10.533 4.5,-9.361 1.793,-21.474 5.961,-31.319 2.266,-5.354 9.877,-8.163 10.518,-14.146 1.533,-14.325 -16.662,-8.03 -23.967,-11.368 -1.389,-0.635 -2.451,-1.582 -3.4,-2.633 -0.326,0.114 -0.654,0.229 -0.984,0.348 -1.619,0.578 -3.313,0.896 -5.035,1.119 -2.141,0.292 -4.332,0.425 -6.484,0.71 -1.641,0.229 -3.258,0.554 -4.811,1.122 -8.057,2.95 -10.959,13.089 -17.193,18.341 -7.803,6.573 -15.82,11.302 -10.025,22.794 5.057,10.027 -0.62,17.022 2.609,26.692 1.62,4.855 7.064,5.436 12.467,4.705 2.414,-0.348 4.809,-0.945 6.832,-1.533 -0.008,0.002 -0.02,0.029 -0.029,0.049 0.107,-0.031 0.221,-0.061 0.326,-0.092 -0.193,0.057 -1.32,6.488 -1.572,7.223 -0.766,2.24 -1.793,4.391 -3.086,6.375 -2.475,3.797 -5.873,6.885 -9.734,9.232 -6.944,4.223 -14.278,5.33 -21.898,6.459 6.521,2.702 17.799,1.029 23.126,0.249 z" />
        <path
           style="fill:#fff9ec;stroke:#000000"
           inkscape:connector-curvature="0"
           id="path2067"
           d="m 308.355,553.397 c -9.786,0.951 -7.514,-7.132 -7.998,-14.007 -0.037,-0.018 -0.075,-0.035 -0.112,-0.054 -7.71,-3.685 -14.735,3.595 -22.032,5.364 -3.48,0.844 -8.44,0.414 -12.887,0.904 -4.446,-0.49 -9.406,-0.061 -12.887,-0.904 -7.297,-1.77 -14.322,-9.049 -22.032,-5.364 -0.037,0.019 -0.075,0.036 -0.112,0.054 -0.484,6.875 1.788,14.958 -7.999,14.007 -7.728,-0.75 4.775,25.8 5.634,27.228 3.604,5.988 5.213,12.363 7.912,18.688 2.26,5.293 6.787,10.395 8.25,15.879 1.513,5.668 0.028,20.016 5.098,24.088 6.375,5.119 12.191,-0.217 16.137,-6.273 3.945,6.057 9.762,11.393 16.137,6.273 5.069,-4.072 3.585,-18.42 5.098,-24.088 1.463,-5.484 5.99,-10.586 8.25,-15.879 2.699,-6.324 4.309,-12.699 7.912,-18.688 0.856,-1.428 13.359,-27.978 5.631,-27.228 z" />
        <path
           style="fill:#fff9ec;stroke:#000000"
           inkscape:connector-curvature="0"
           id="path2069"
           d="m 264.371,637.273 c -0.246,-5.57 0.331,-11.305 -0.456,-16.82 -1.965,-0.33 -3.911,-0.613 -5.84,-0.9 -6.542,2.629 -17.703,0.977 -22.995,0.203 -9.703,-1.422 -20.73,-4.813 -28.173,-11.484 -3.134,-2.811 -8.724,-6.797 -10.678,-10.377 -1.553,-2.846 -0.905,-6.816 -1.305,-10.07 -0.081,-0.654 -0.204,-1.281 -0.396,-1.863 -1.329,-4.023 -4.023,-6.781 -5.828,-10.533 -4.5,-9.361 -1.793,-21.476 -5.959,-31.32 -2.268,-5.354 -9.877,-8.162 -10.52,-14.146 -1.531,-14.324 16.663,-8.029 23.967,-11.367 1.393,-0.636 2.455,-1.585 3.408,-2.639 -5.435,-1.894 -10.393,-3.249 -16.482,-2.404 -7.912,1.096 -14.727,6.698 -17.471,14.183 -3.744,10.204 1.063,13.729 7.314,20.651 5.853,6.481 8.258,16.68 9.644,25.148 1.026,6.267 -1.29,12.525 0.689,18.513 0.132,0.396 1.989,1.33 2.392,1.715 0.689,0.66 1.669,1.627 1.963,2.561 0.525,1.67 0.225,4.145 0.225,5.895 0,4.563 -0.357,8.82 0.625,13.279 0.354,1.609 0.625,3.254 1.193,4.807 0.953,2.611 2.557,4.928 3.517,7.576 0.843,2.326 2.785,3.723 4.421,5.447 1.827,1.924 4.496,2.83 6.931,3.701 2.876,1.027 6.257,1.697 7.065,5.15 0.771,3.295 0.703,6.727 1.502,10.035 1,4.146 3.204,7.891 6.233,10.879 1.427,1.408 2.968,2.727 4.683,3.771 1.758,1.072 3.713,1.51 5.526,2.402 11.409,5.615 25.03,-8.285 30.31,-16.758 3.109,-4.989 4.761,-9.204 4.495,-15.235 z m -19.263,7.236 c -1.306,1.801 -2.846,2.756 -4.407,4.215 -1.481,1.385 -3.316,3.201 -5.459,1.91 -1.701,-1.027 -2.998,-2.928 -4.254,-4.43 -1.499,-1.791 -2.99,-3.666 -3.975,-5.799 -1.604,-3.48 -1.235,-7.225 2.188,-10.711 2.029,-2.066 4.211,-5.059 7.445,-5.02 2.762,0.033 5.178,2.404 7.203,4.047 2.066,1.674 4.378,3.836 4.557,6.676 0.204,3.245 -1.44,6.55 -3.298,9.112 z" />
        <path
           style="fill:#fff9ec;stroke:#000000"
           inkscape:connector-curvature="0"
           id="path2071"
           d="m 358.767,548.385 c 6.252,-6.922 11.059,-10.447 7.314,-20.651 -2.744,-7.484 -9.559,-13.087 -17.471,-14.183 -6.229,-0.863 -11.275,0.573 -16.855,2.535 0.949,1.051 2.012,1.998 3.4,2.633 7.305,3.338 25.5,-2.957 23.967,11.368 -0.641,5.983 -8.252,8.792 -10.518,14.146 -4.168,9.845 -1.461,21.958 -5.961,31.319 -1.803,3.752 -4.498,6.51 -5.826,10.533 -0.193,0.582 -0.316,1.209 -0.396,1.865 -0.4,3.252 0.248,7.223 -1.305,10.068 -1.955,3.582 -7.545,7.566 -10.678,10.377 -7.443,6.672 -18.469,10.064 -28.174,11.484 -5.327,0.779 -16.605,2.453 -23.129,-0.25 -1.761,0.26 -3.536,0.521 -5.325,0.822 -0.787,5.516 -0.21,11.25 -0.456,16.82 -0.267,6.031 1.386,10.246 4.494,15.234 5.279,8.473 18.9,22.373 30.309,16.758 1.814,-0.893 3.77,-1.33 5.527,-2.402 1.715,-1.045 3.256,-2.363 4.682,-3.771 3.029,-2.988 5.234,-6.732 6.234,-10.879 0.799,-3.309 0.73,-6.74 1.502,-10.035 0.809,-3.453 4.189,-4.123 7.064,-5.15 2.436,-0.871 5.104,-1.777 6.932,-3.701 1.635,-1.725 3.578,-3.121 4.42,-5.447 0.961,-2.648 2.564,-4.965 3.518,-7.576 0.568,-1.555 0.838,-3.197 1.193,-4.807 0.982,-4.461 0.625,-8.717 0.625,-13.279 0,-1.75 -0.301,-4.225 0.225,-5.895 0.293,-0.934 1.273,-1.9 1.963,-2.561 0.402,-0.385 2.26,-1.318 2.391,-1.715 1.98,-5.988 -0.336,-12.246 0.689,-18.513 1.387,-8.468 3.792,-18.666 9.645,-25.147 z m -54.055,92.021 c -0.984,2.133 -2.477,4.008 -3.975,5.799 -1.256,1.502 -2.553,3.402 -4.254,4.43 -2.143,1.291 -3.978,-0.525 -5.459,-1.91 -1.562,-1.459 -3.102,-2.414 -4.407,-4.215 -1.858,-2.563 -3.502,-5.867 -3.298,-9.111 0.179,-2.84 2.49,-5.002 4.557,-6.676 2.025,-1.643 4.441,-4.014 7.203,-4.047 3.234,-0.039 5.416,2.953 7.445,5.02 3.423,3.485 3.792,7.229 2.188,10.71 z" />
      </g>
      <g
         id="g2095">
        <g
           id="g2083">
          <path
             style="fill:none;stroke:#000000"
             inkscape:connector-curvature="0"
             id="path2075"
             d="m 236.121,572.883 c 1.799,-3.555 10.277,-10.939 14.497,-8.498 1.991,1.152 2.339,5.385 4.837,7.016 2.563,1.674 6.211,1.9 9.131,2.148 -0.598,0 -1.2,-0.02 -1.798,0" />
          <path
             style="fill:none;stroke:#000000"
             inkscape:connector-curvature="0"
             id="path2077"
             d="m 242.121,584.884 c 0.166,-1.893 8.164,-6.482 11.328,-5.219 4.481,1.791 3.03,8.332 -1.328,9.885" />
          <path
             style="fill:none;stroke:#000000"
             inkscape:connector-curvature="0"
             id="path2079"
             d="m 256.787,614.216 c -2.523,-0.264 -3.861,-2.076 -4,-4.666" />
          <path
             style="fill:none;stroke:#000000"
             inkscape:connector-curvature="0"
             id="path2081"
             d="m 254.787,600.216 c -1.749,-4.666 -2.525,-8.162 -8.666,-6.666" />
        </g>
        <g
           id="g2093">
          <path
             style="fill:none;stroke:#000000"
             inkscape:connector-curvature="0"
             id="path2085"
             d="m 297.621,572.715 c -1.799,-3.555 -10.277,-10.939 -14.497,-8.496 -1.991,1.152 -2.339,5.383 -4.837,7.014 -2.563,1.674 -6.211,1.9 -9.131,2.148 0.598,0 1.2,-0.02 1.798,0" />
          <path
             style="fill:none;stroke:#000000"
             inkscape:connector-curvature="0"
             id="path2087"
             d="m 291.621,584.716 c -0.166,-1.891 -8.164,-6.482 -11.328,-5.217 -4.481,1.791 -3.03,8.332 1.328,9.883" />
          <path
             style="fill:none;stroke:#000000"
             inkscape:connector-curvature="0"
             id="path2089"
             d="m 276.955,614.05 c 2.523,-0.264 3.861,-2.078 4,-4.668" />
          <path
             style="fill:none;stroke:#000000"
             inkscape:connector-curvature="0"
             id="path2091"
             d="m 278.955,600.05 c 1.749,-4.668 2.525,-8.164 8.666,-6.668" />
        </g>
      </g>
    </g>
  </g>
</svg>
