<?xml version="1.0" encoding="UTF-8" standalone="no"?>
<!-- Created with Inkscape (http://www.inkscape.org/) -->

<svg
   xmlns:dc="http://purl.org/dc/elements/1.1/"
   xmlns:cc="http://creativecommons.org/ns#"
   xmlns:rdf="http://www.w3.org/1999/02/22-rdf-syntax-ns#"
   xmlns:svg="http://www.w3.org/2000/svg"
   xmlns="http://www.w3.org/2000/svg"
   xmlns:sodipodi="http://sodipodi.sourceforge.net/DTD/sodipodi-0.dtd"
   xmlns:inkscape="http://www.inkscape.org/namespaces/inkscape"
   width="35.589687mm"
   height="63.99913mm"
   viewBox="0 0 35.589687 63.99913"
   version="1.1"
   id="svg4175"
   inkscape:version="0.92.4 (5da689c313, 2019-01-14)"
   sodipodi:docname="rbrachial.svg">
  <defs
     id="defs4169" />
  <sodipodi:namedview
     id="base"
     pagecolor="#ffffff"
     bordercolor="#666666"
     borderopacity="1.0"
     inkscape:pageopacity="0.0"
     inkscape:pageshadow="2"
     inkscape:zoom="1.4"
     inkscape:cx="253.73332"
     inkscape:cy="225.6688"
     inkscape:document-units="mm"
     inkscape:current-layer="layer1"
     showgrid="false"
     inkscape:window-width="1225"
     inkscape:window-height="768"
     inkscape:window-x="0"
     inkscape:window-y="0"
     inkscape:window-maximized="1" />
  <metadata
     id="metadata4172">
    <rdf:RDF>
      <cc:Work
         rdf:about="">
        <dc:format>image/svg+xml</dc:format>
        <dc:type
           rdf:resource="http://purl.org/dc/dcmitype/StillImage" />
        <dc:title />
      </cc:Work>
    </rdf:RDF>
  </metadata>
  <g
     inkscape:label="Layer 1"
     inkscape:groupmode="layer"
     id="layer1"
     transform="translate(-3.3718229,-4.1968629)">
    <g
       transform="matrix(0.26458333,0,0,0.26458333,-22.690674,-56.413635)"
       id="g2037">
      <path
         style="fill:#fff9ec;stroke:#000000"
         inkscape:connector-curvature="0"
         id="path2033"
         d="m 155.269,242.972 c 0.814,-1.05 0.891,-2.609 1.706,-3.688 1.066,-1.411 2.685,-1.444 4.304,-1.107 4.116,0.854 7.51,3.705 11.303,5.351 5.742,2.492 8.638,6.646 17.263,5.521 3.537,-0.461 8.25,-1 11.633,-1.859 7.221,-1.834 13.492,-9.141 18.242,-8.016 1.623,0.384 5.646,8.466 6.375,10 1.771,3.722 6.132,9.216 6.375,13.375 0.309,5.294 -1,10.875 -2.238,16.473 -4.059,18.346 -9.397,36.185 -15.137,53.402 -2.875,8.625 -4.333,18.346 -11.9,22.5 -10.85,-3.75 -15.861,-15.926 -18.226,-22.751 -3.919,-11.313 -8.399,-21.828 -16.478,-30.726 -4.633,-5.104 -7.563,-9.174 -9.672,-15.899 -0.835,-2.664 -2.667,-5.094 -4.877,-6.783 -0.84,-0.641 -1.896,-1.388 -2.919,-1.692 -2.646,-0.787 -5.909,-1.598 -4.344,-4.997 1.25,-2.714 3.88,-4.611 5.723,-6.893 1.103,-1.365 2.272,-3.053 2.806,-4.746 2.8,-8.887 -0.62,-11.786 -9.363,-11.889 -4.795,-0.057 -16.172,2.508 -16.496,-3.502 -0.291,-5.395 2.221,-10.042 6.918,-12.692 1.72,-0.97 3.601,-1.655 5.521,-2.105 1.589,-0.373 4.981,-1.338 6.329,0.085 1.04,1.098 0.075,3.146 0.182,4.49 0.161,2.026 1.096,4.373 2.304,6.002 0.522,0.705 3.617,3.497 4.666,2.146 z" />
      <path
         style="fill:#fff9ec;stroke:#000000"
         inkscape:connector-curvature="0"
         id="path2035"
         d="m 149.015,275.218 c -5.338,5.663 -5.639,11.287 -7.171,18.829 -1.492,7.347 -1.668,15.381 -2,22.997 -0.713,16.315 -0.997,32.836 -1,49.032 -0.003,16.694 -1.405,32.595 -1.948,48.897 -0.552,16.575 2.857,33.648 0.774,48.9 -1.159,4.842 -11.976,7.283 -18.85,6.42 -3.392,-0.426 -17.433,-5.367 -18.773,-7.226 -5.815,-8.063 14.47,-28.338 16.845,-38.023 3.839,-15.652 3.399,-33.403 5.004,-49.722 1.626,-16.544 3.141,-32.561 3.948,-49.274 0.975,-20.179 2.334,-36.871 -2.774,-56.003 -1.645,-6.16 -4.828,-15.145 0.321,-20.51 4.613,-4.805 12.603,-4.159 18.282,-1.657 2.041,0.898 4.133,1.312 5.834,2.712 1.941,1.599 3.393,2.811 4.218,5.125 0.854,2.395 1.788,4.618 2.171,7.164 0.365,2.427 0.428,5.037 -0.363,7.392 -0.372,1.108 -0.919,2.159 -1.71,3.027 -0.368,0.404 -2.64,1.742 -2.808,1.92 z" />
    </g>
  </g>
</svg>
