<?xml version="1.0" encoding="UTF-8" standalone="no"?>
<!-- Created with Inkscape (http://www.inkscape.org/) -->

<svg
   xmlns:dc="http://purl.org/dc/elements/1.1/"
   xmlns:cc="http://creativecommons.org/ns#"
   xmlns:rdf="http://www.w3.org/1999/02/22-rdf-syntax-ns#"
   xmlns:svg="http://www.w3.org/2000/svg"
   xmlns="http://www.w3.org/2000/svg"
   xmlns:sodipodi="http://sodipodi.sourceforge.net/DTD/sodipodi-0.dtd"
   xmlns:inkscape="http://www.inkscape.org/namespaces/inkscape"
   width="29.158346mm"
   height="7.2441664mm"
   viewBox="0 0 29.158346 7.2441664"
   version="1.1"
   id="svg3786"
   inkscape:version="0.92.4 (5da689c313, 2019-01-14)"
   sodipodi:docname="rclavicle.svg">
  <defs
     id="defs3780" />
  <sodipodi:namedview
     id="base"
     pagecolor="#ffffff"
     bordercolor="#666666"
     borderopacity="1.0"
     inkscape:pageopacity="0.0"
     inkscape:pageshadow="2"
     inkscape:zoom="0.35"
     inkscape:cx="272.24524"
     inkscape:cy="-300.59595"
     inkscape:document-units="mm"
     inkscape:current-layer="layer1"
     showgrid="false"
     inkscape:window-width="1225"
     inkscape:window-height="768"
     inkscape:window-x="0"
     inkscape:window-y="0"
     inkscape:window-maximized="1" />
  <metadata
     id="metadata3783">
    <rdf:RDF>
      <cc:Work
         rdf:about="">
        <dc:format>image/svg+xml</dc:format>
        <dc:type
           rdf:resource="http://purl.org/dc/dcmitype/StillImage" />
        <dc:title></dc:title>
      </cc:Work>
    </rdf:RDF>
  </metadata>
  <g
     inkscape:label="Layer 1"
     inkscape:groupmode="layer"
     id="layer1"
     transform="translate(155.18631,-62.056488)">
    <path
       style="fill:#fff9ec;stroke:#000000;stroke-width:0.26458332"
       inkscape:connector-curvature="0"
       id="path705"
       d="m -154.97119,64.209175 c -0.0614,-0.156369 -0.0913,-0.321205 -0.0807,-0.475192 0.0609,-0.902494 1.23878,-1.353608 1.99973,-1.437481 0.82708,-0.09128 1.6756,-0.13044 2.50719,-0.09446 1.79123,0.07699 3.58166,0.341578 5.33955,0.683684 0.5842,0.113771 1.1737,0.2286 1.74387,0.401373 1.22502,0.370946 2.56805,0.761471 3.63882,1.395677 0.29871,0.176741 0.60325,0.344487 0.91784,0.510116 0.61145,0.322263 1.19909,0.720461 1.87087,0.908579 0.60192,0.16854 1.29698,0.300567 1.91981,0.382323 0.78502,0.102923 1.56131,0.07435 2.37067,0.07435 0.60404,0 1.17925,-0.05503 1.75233,-0.111918 0.15664,-0.01561 0.31327,-0.03148 0.47017,-0.0463 0.94932,-0.08969 1.78038,-0.396875 2.74399,-0.374386 0.80672,0.01905 1.14829,0.605102 1.45574,1.293283 0.11536,0.258234 0.24183,0.450057 0.0982,0.728928 -0.21299,0.412485 -0.94562,0.53922 -1.34038,0.670983 -0.50853,0.170127 -1.06257,0.381264 -1.56898,0.442648 -0.50033,0.06059 -0.95144,-0.318029 -1.39726,-0.477838 -0.78026,-0.2794 -1.56475,-0.429154 -2.4093,-0.438944 -0.88953,-0.01032 -1.72799,0.174625 -2.61117,0.172773 -0.94747,-0.0021 -1.79255,-0.366977 -2.61964,-0.791898 -1.39039,-0.714639 -2.66436,-1.646502 -4.10951,-2.255572 -1.4388,-0.60669 -3.01281,-1.028436 -4.55269,-1.278202 -0.92075,-0.14949 -1.84758,-0.297127 -2.77971,-0.303742 -1.09246,-0.0079 -1.31656,-0.0254 -2.34923,0.1905 -0.36301,0.07594 -0.7583,0.277548 -1.05834,0.496094 -0.3294,0.240241 -0.71834,0.505883 -1.17104,0.436827 -0.35587,-0.05397 -0.64559,-0.357452 -0.78079,-0.702204 z" />
  </g>
</svg>
