<?xml version="1.0" encoding="UTF-8" standalone="no"?>
<!-- Created with Inkscape (http://www.inkscape.org/) -->

<svg
   xmlns:dc="http://purl.org/dc/elements/1.1/"
   xmlns:cc="http://creativecommons.org/ns#"
   xmlns:rdf="http://www.w3.org/1999/02/22-rdf-syntax-ns#"
   xmlns:svg="http://www.w3.org/2000/svg"
   xmlns="http://www.w3.org/2000/svg"
   xmlns:sodipodi="http://sodipodi.sourceforge.net/DTD/sodipodi-0.dtd"
   xmlns:inkscape="http://www.inkscape.org/namespaces/inkscape"
   width="28.831993mm"
   height="82.797028mm"
   viewBox="0 0 28.831993 82.797028"
   version="1.1"
   id="svg2654"
   inkscape:version="0.92.4 (5da689c313, 2019-01-14)"
   sodipodi:docname="rfemur.svg">
  <defs
     id="defs2648" />
  <sodipodi:namedview
     id="base"
     pagecolor="#ffffff"
     bordercolor="#666666"
     borderopacity="1.0"
     inkscape:pageopacity="0.0"
     inkscape:pageshadow="2"
     inkscape:zoom="0.49497475"
     inkscape:cx="-243.74423"
     inkscape:cy="-3.4870126"
     inkscape:document-units="mm"
     inkscape:current-layer="layer1"
     showgrid="false"
     inkscape:window-width="1225"
     inkscape:window-height="768"
     inkscape:window-x="0"
     inkscape:window-y="0"
     inkscape:window-maximized="1" />
  <metadata
     id="metadata2651">
    <rdf:RDF>
      <cc:Work
         rdf:about="">
        <dc:format>image/svg+xml</dc:format>
        <dc:type
           rdf:resource="http://purl.org/dc/dcmitype/StillImage" />
        <dc:title />
      </cc:Work>
    </rdf:RDF>
  </metadata>
  <g
     inkscape:label="Layer 1"
     inkscape:groupmode="layer"
     id="layer1"
     transform="translate(-0.46590185,-0.38697217)">
    <path
       style="fill:#fff9ec;stroke:#000000;stroke-width:0.26458332"
       inkscape:connector-curvature="0"
       id="path497"
       d="m 23.256101,66.293866 c 1.124744,3.183732 3.278188,4.862777 4.994275,7.37579 0.8382,1.227402 1.225021,1.694392 0.625475,3.174999 -0.424391,1.04907 -0.270404,1.65682 -0.625475,2.77813 -0.264848,0.83767 -1.119187,2.59106 -2.106877,2.91703 -0.901965,0.29871 -2.384425,-0.68369 -3.023129,-1.22688 -1.907381,-1.6211 -3.226594,-1.6764 -4.949825,0.1323 -2.002631,2.10211 -4.295775,2.63128 -6.096,-1.45468 -0.4191,-0.95144 -0.365125,-2.6371 -0.360098,-3.67533 0.0061,-1.364721 0.935302,-1.808163 1.329002,-3.045884 C 15.021209,67.054808 12.827284,62.076143 12.110793,57.132933 11.213591,50.943006 10.258709,45.094391 9.3326691,38.876683 8.4370537,32.864556 8.6384017,27.125479 5.9960077,21.55309 5.379264,20.252398 4.639489,19.002771 3.644127,17.978569 2.736341,17.044325 1.477718,16.347148 1.027662,15.060479 0.2696311,12.893277 0.59533305,9.6777957 1.431152,7.5833546 2.545048,4.7922642 7.1808117,7.4613816 7.8766657,5.0393852 c 0.176478,-0.613833 -0.19341,-1.335352 0.126207,-2.013744 0.302418,-0.641879 0.755914,-0.913606 1.3364104,-1.289844 1.7126469,-1.10992699 3.7023139,-1.89653296 5.2535659,-0.363273 1.31445,1.299634 2.187046,3.70205 3.847835,4.589992 -0.460375,1.6438564 -2.656152,2.2650984 -3.680618,3.2779236 -1.103048,1.0903482 -1.748896,3.7097232 -2.100527,5.2617692 0.982927,0.850635 1.765035,0.82841 1.471877,2.321189 -0.219075,1.116806 -0.844815,2.001044 -0.96229,3.162036 -0.249237,2.466445 0.346075,5.053012 0.897202,7.381874 0.618331,2.61276 1.108075,5.253302 1.713177,7.868708 0.596371,2.5781 1.06389,5.253832 1.623219,7.840927 0.315648,1.459971 0.695325,2.947194 0.859896,4.431771 0.173831,1.571361 0.742685,2.903273 0.992187,4.464844 0.404284,2.488671 0.794809,5.026554 1.576388,7.42024 0.756708,2.318543 1.612635,4.601633 2.424906,6.900068 z" />
  </g>
</svg>
