<?xml version="1.0" encoding="UTF-8" standalone="no"?>
<!-- Created with Inkscape (http://www.inkscape.org/) -->

<svg
   xmlns:dc="http://purl.org/dc/elements/1.1/"
   xmlns:cc="http://creativecommons.org/ns#"
   xmlns:rdf="http://www.w3.org/1999/02/22-rdf-syntax-ns#"
   xmlns:svg="http://www.w3.org/2000/svg"
   xmlns="http://www.w3.org/2000/svg"
   xmlns:sodipodi="http://sodipodi.sourceforge.net/DTD/sodipodi-0.dtd"
   xmlns:inkscape="http://www.inkscape.org/namespaces/inkscape"
   width="35.050922mm"
   height="77.319366mm"
   viewBox="0 0 35.050922 77.319366"
   version="1.1"
   id="svg5393"
   inkscape:version="0.92.4 (5da689c313, 2019-01-14)"
   sodipodi:docname="rforearm.svg">
  <defs
     id="defs5387" />
  <sodipodi:namedview
     id="base"
     pagecolor="#ffffff"
     bordercolor="#666666"
     borderopacity="1.0"
     inkscape:pageopacity="0.0"
     inkscape:pageshadow="2"
     inkscape:zoom="0.7"
     inkscape:cx="79.309957"
     inkscape:cy="226.79468"
     inkscape:document-units="mm"
     inkscape:current-layer="layer1"
     showgrid="false"
     inkscape:window-width="1225"
     inkscape:window-height="768"
     inkscape:window-x="0"
     inkscape:window-y="0"
     inkscape:window-maximized="1" />
  <metadata
     id="metadata5390">
    <rdf:RDF>
      <cc:Work
         rdf:about="">
        <dc:format>image/svg+xml</dc:format>
        <dc:type
           rdf:resource="http://purl.org/dc/dcmitype/StillImage" />
        <dc:title />
      </cc:Work>
    </rdf:RDF>
  </metadata>
  <g
     inkscape:label="Layer 1"
     inkscape:groupmode="layer"
     id="layer1"
     transform="translate(-0.99537315,-1.6944789)">
    <g
       transform="matrix(0.26458333,0,0,0.26458333,0.99617161,-121.14875)"
       id="g2323">
      <g
         id="g2251">
        <path
           style="fill:#fff9ec;stroke:#000000"
           inkscape:connector-curvature="0"
           id="path2247"
           d="m 114.437,475.813 c 0.646,13.039 -2.834,17.5 -9.501,27.833 -3.355,8.971 -8.985,23.137 -15.166,42.667 -4.7,14.852 -10.333,27.333 -12.833,43.167 -1.451,9.189 -1.833,17.742 -1.834,27.168 -0.002,10.855 -0.689,19 -13.499,19 -12.167,0 -8.732,-10.541 -4.5,-18.5 4.166,-7.834 7.029,-15.117 9.333,-24.334 5.166,-20.667 12.499,-40.667 18.614,-59.328 1.907,-5.82 3.499,-11.964 5.719,-17.673 1.166,-3 1.813,-5.931 2.834,-9.167 0.791,-2.508 1.133,-4.707 2.17,-7.117 1.051,-2.443 1.898,-4.983 2.829,-7.491 0.902,-2.431 1.066,-4.458 2.001,-6.892 1.061,-2.761 -1.502,-7.5 -1.001,-11 0.432,-3.017 0.559,-2.925 1.834,-6 1.003,-2.417 3.263,-3.541 5.667,-3.333 6.119,0.527 7.081,5.913 7.333,11 z" />
        <path
           style="fill:#fff9ec;stroke:#000000"
           inkscape:connector-curvature="0"
           id="path2249"
           d="m 116.603,517.225 c -4.243,18.417 -9.012,36.532 -13.5,54.922 -4.345,17.802 -10.707,34.181 -17.251,51.076 -2.036,5.258 -3.019,16.039 -10.194,15.807 -11.008,-0.357 -4.033,-11.359 -1.302,-16.297 14.247,-25.752 19.707,-54.818 26.247,-84.419 3.167,-14.333 6.833,-28.667 9.055,-44.259 0.583,-4.093 0.05,-8.343 0.095,-12.471 0.039,-3.673 -0.997,-10.111 2.118,-12.884 2.355,-2.097 7.341,-1.443 10.188,-1.044 22.647,3.176 -0.063,34.772 -4.003,44.95 -0.584,1.505 -1.09,3.043 -1.453,4.619 z" />
      </g>
      <g
         id="g2321">
        <g
           id="g2271">
          <g
             id="g2267">
            <path
               style="fill:#fff9ec;stroke:#000000"
               inkscape:connector-curvature="0"
               id="path2253"
               d="m 65.52,657.667 c -0.28,1.877 -2.456,3.719 -1.932,5.688 0.673,2.523 4.917,3.342 7.209,2.674 5.78,-1.684 1.868,-8.633 1.724,-12.674 -0.071,-2.004 1.391,-5.668 -1.581,-6.229 -0.409,-0.076 -0.834,-0.107 -1.245,-0.053 -1.671,0.227 -3.314,0.85 -4.055,2.496 -0.611,1.357 -0.444,2.938 -0.285,4.373 0.136,1.227 0.349,2.493 0.165,3.725 z" />
            <path
               style="fill:#fff9ec;stroke:#000000"
               inkscape:connector-curvature="0"
               id="path2255"
               d="m 70.522,650.021 c 0.146,-0.652 0.353,-1.299 0.675,-1.885 0.684,-1.252 1.848,-1.951 3.25,-2.104 1.588,-0.172 3.38,0.107 4.855,0.672 1.066,0.408 2.024,1.523 2.572,2.486 0.584,1.023 0.892,2.191 0.971,3.363 0.15,2.221 -0.482,4.695 -2.086,6.307 -1.745,1.752 -4.18,1.658 -6.229,0.484 -2.642,-1.514 -4.749,-6.011 -4.008,-9.323 z" />
            <path
               style="fill:#fff9ec;stroke:#000000"
               inkscape:connector-curvature="0"
               id="path2257"
               d="m 82.201,656.63 c -0.549,0.5 -1.167,0.945 -1.86,1.217 -1.771,0.695 -3.439,-0.162 -4.373,-1.723 -0.923,-1.545 -1.219,-3.623 -0.558,-5.32 0.824,-2.113 3.388,-3.082 5.422,-2.098 1.425,0.691 2.399,2.018 2.612,3.588 0.182,1.35 -0.179,3.37 -1.243,4.336 z" />
            <path
               style="fill:#fff9ec;stroke:#000000"
               inkscape:connector-curvature="0"
               id="path2259"
               d="m 48.114,654.853 c 0.014,-0.037 0.028,-0.072 0.042,-0.109 1.396,-3.488 5.602,-3.732 8.713,-2.65 1.224,0.426 2.209,1.664 2.536,2.904 0.309,1.17 0.166,2.439 -0.267,3.561 -1.007,2.609 -3.562,4.189 -6.35,3.709 -3.306,-0.571 -5.745,-4.589 -4.674,-7.415 z" />
            <path
               style="fill:#fff9ec;stroke:#000000"
               inkscape:connector-curvature="0"
               id="path2261"
               d="m 45.965,645.511 c 0.006,-0.018 0.011,-0.035 0.017,-0.053 0.618,-1.977 2.215,-3.553 3.835,-4.758 0.965,-0.717 2.003,-1.336 3.08,-1.865 1.06,-0.523 2.187,-0.84 3.183,-1.482 0.25,-0.162 0.47,-0.303 0.684,-0.504 1.91,-1.791 5.256,-1.707 7.352,-0.271 0.967,0.664 1.654,1.689 1.604,2.893 -0.069,1.699 -1.373,3.145 -2.578,4.207 -1.83,1.613 -3.65,2.936 -5.15,4.705 -1.321,1.557 -2.164,4.857 -3.75,5.764 -4.823,2.753 -9.623,-4.177 -8.277,-8.636 z" />
            <path
               style="fill:#fff9ec;stroke:#000000"
               inkscape:connector-curvature="0"
               id="path2263"
               d="m 63.921,642.333 c 0.253,-0.969 0.66,-1.936 1.367,-2.66 1,-1.027 2.413,-1.281 3.792,-1.227 1.843,0.074 3.903,0.102 5.326,1.453 0.905,0.861 1.705,2.293 2.057,3.492 1.391,4.74 -7.337,6.221 -10.357,4.357 -1.63,-1.002 -2.711,-3.401 -2.185,-5.415 z" />
            <path
               style="fill:#fff9ec;stroke:#000000"
               inkscape:connector-curvature="0"
               id="path2265"
               d="m 58.828,648.326 c 0.572,-1.086 1.336,-2.164 2.535,-2.598 1.254,-0.451 2.569,-0.053 3.812,0.26 0.632,0.16 1.517,0.727 1.754,1.352 0.234,0.623 0.104,1.324 -0.072,1.943 -0.382,1.344 -1.243,2.637 -1.336,4.051 -0.233,3.568 2.554,6.475 0.582,10 -4.118,7.363 -15.322,-4.732 -7.648,-6.365 1.011,-2.657 -0.886,-6.259 0.373,-8.643 z" />
          </g>
          <path
             style="fill:#fff9ec;stroke:#000000"
             inkscape:connector-curvature="0"
             id="path2269"
             d="m 48.091,654.255 c -0.412,1.783 -1.116,3.852 -2.604,5.033 -0.315,0.25 -0.681,0.469 -1.072,0.578 -0.487,0.137 -0.772,-0.059 -1.233,-0.195 -1.042,-0.309 -2.097,-0.557 -2.944,-1.285 -0.578,-0.496 -1.186,-1.035 -1.665,-1.646 -0.513,-0.652 -0.936,-1.455 -1.326,-2.176 -0.056,-0.104 -0.119,-0.203 -0.177,-0.307 -1.36,-2.447 0.353,-4.734 2.368,-6.057 1.832,-1.201 4.468,-2.145 6.63,-1.313 2.916,1.124 2.593,4.907 2.023,7.368 z" />
        </g>
        <g
           id="g2281">
          <path
             style="fill:#fff9ec;stroke:#000000"
             inkscape:connector-curvature="0"
             id="path2273"
             d="m 67.138,747.812 c -0.197,2.777 1.904,7.725 -3.586,6.688 -1.63,-2.582 -0.372,-4.973 -0.357,-7.723 0.01,-1.379 -0.42,-2.77 -0.293,-4.143 0.138,-1.504 1.376,-2.701 3.147,-2.756 1.205,-0.035 1.684,0.592 1.862,1.555 0.399,2.156 -0.621,4.252 -0.773,6.379 z" />
          <path
             style="fill:#fff9ec;stroke:#000000"
             inkscape:connector-curvature="0"
             id="path2275"
             d="m 62.71,732.826 c -0.029,-1.49 -0.229,-2.973 -0.609,-4.412 -0.447,-1.684 -0.957,-3.379 -0.554,-5.133 0.35,-1.516 1.373,-1.404 2.612,-1.6 1.635,-0.26 3.825,-0.512 4.737,1.295 0.807,1.598 -0.111,3.494 -0.605,5.033 -0.938,2.93 -1.02,6.299 -0.123,9.254 0.802,2.641 0.896,3.881 -1.87,4.818 -5.25,1.785 -3.677,-5.434 -3.592,-8.297 0.009,-0.318 0.01,-0.64 0.004,-0.958 z" />
          <path
             style="fill:#fff9ec;stroke:#000000"
             inkscape:connector-curvature="0"
             id="path2277"
             d="m 63.407,707.644 c -0.076,-0.258 -0.382,-1.494 -0.457,-1.752 -0.804,-2.789 -1.751,-4.922 -0.334,-7.82 1.555,-3.18 8.184,-2.633 9.678,0.73 0.948,2.131 -1.349,4.037 -1.957,6.146 -1.751,6.066 -1.072,9.701 0.167,15.537 1.113,5.25 -9.568,5.939 -8.84,0.539 0.264,-1.953 1.822,-3.805 2.154,-5.934 0.394,-2.52 0.264,-5.173 -0.411,-7.446 z" />
          <path
             style="fill:#fff9ec;stroke:#000000"
             inkscape:connector-curvature="0"
             id="path2279"
             d="m 65.738,665.23 c 6.948,0.023 5.322,4.379 4.999,9.734 -0.28,4.639 -0.191,9.742 0.527,14.238 0.317,1.99 2.315,4.889 1.394,6.877 -0.522,1.127 -3.275,2.711 -4.346,3.076 -4.164,1.424 -8.024,-1.221 -7.322,-6.002 0.889,-6.047 1.693,-12.51 0.539,-18.709 -0.447,-2.4 -1.496,-4.432 0.191,-6.646 1.569,-2.057 3.737,-2.545 6.389,-2.568" />
        </g>
        <g
           id="g2291">
          <path
             style="fill:#fff9ec;stroke:#000000"
             inkscape:connector-curvature="0"
             id="path2283"
             d="m 86.112,725.39 c 0.472,2.391 0.021,4.248 0.027,6.639 0.005,1.92 0.894,6.213 -2.042,5.6 -1.396,-0.293 -1.767,-1.869 -1.904,-3.084 -0.171,-1.514 0.006,-2.949 0.006,-4.449 0,-0.67 -0.01,-1.346 -0.041,-2.002 -0.027,-0.582 -0.094,-1.15 0.074,-1.709 0.071,-0.24 0.139,-0.471 0.227,-0.697 0.394,-1.007 2.877,-0.546 3.653,-0.298 z" />
          <path
             style="fill:#fff9ec;stroke:#000000"
             inkscape:connector-curvature="0"
             id="path2285"
             d="m 84.713,712.472 c 0.122,0 0.271,-0.023 0.391,0 0.396,0.074 0.576,0.586 0.709,0.918 0.153,0.385 0.244,0.793 0.3,1.203 0.126,0.924 0.079,1.867 0.008,2.795 -0.124,1.613 -0.428,3.279 -0.206,4.896 0.208,1.518 0.973,3.107 -0.251,4.318 -0.796,0.789 -1.897,0.736 -2.874,0.398 -1.135,-0.393 -1.222,-1.246 -1.364,-2.316 -0.083,-0.617 -0.157,-1.236 -0.223,-1.857 -0.131,-1.248 -0.225,-2.502 -0.281,-3.758 -0.056,-1.256 -0.075,-2.512 -0.056,-3.77 0.01,-0.641 0.029,-1.281 0.059,-1.92 0.01,-0.217 0.011,-0.381 0.24,-0.459 0.214,-0.074 0.426,-0.225 0.643,-0.277 0.431,-0.105 0.927,-0.033 1.37,-0.07 0.511,-0.04 1.022,-0.101 1.535,-0.101 z" />
          <path
             style="fill:#fff9ec;stroke:#000000"
             inkscape:connector-curvature="0"
             id="path2287"
             d="m 82.398,691.718 c 1.274,0.002 2.693,0.107 3.804,0.814 0.759,0.482 0.954,1.531 1.258,2.313 0.408,1.049 -0.078,1.938 -0.5,2.924 -0.469,1.096 -0.74,2.266 -0.805,3.459 -0.073,1.336 0.127,2.678 0.127,4.021 0,1.154 0.046,2.33 0.363,3.428 0.25,0.867 0.462,1.699 0.388,2.625 -0.076,0.955 -0.597,1.492 -1.376,1.893 -0.764,0.393 -1.668,0.27 -2.508,0.232 -0.85,-0.039 -1.671,-0.184 -2.41,-0.615 -1.832,-1.066 -0.335,-3.838 -0.249,-5.377 0.113,-2.031 0.155,-3.936 -0.125,-5.936 -0.067,-0.482 -0.06,-1.01 -0.164,-1.482 -0.089,-0.402 -0.291,-0.775 -0.368,-1.184 -0.158,-0.84 -0.479,-1.621 -0.729,-2.449 -0.444,-1.473 -0.076,-3.164 1.22,-4.051 0.639,-0.439 1.306,-0.617 2.074,-0.615 z" />
          <path
             style="fill:#fff9ec;stroke:#000000"
             inkscape:connector-curvature="0"
             id="path2289"
             d="m 68.853,665.98 c 0.479,-0.707 1.759,-1.379 2.5,-1.75 0.893,-0.443 2.748,-0.229 3.767,-0.244 2.075,-0.033 3.557,1.691 4.242,3.488 0.035,0.09 0.068,0.182 0.098,0.273 0.505,1.527 0.475,3.252 0.401,4.84 -0.063,1.355 0.487,2.738 1.045,3.971 1.233,2.725 3.046,5.119 4.586,7.67 2.186,3.621 3.521,7.176 -1.529,9.119 -5.422,2.086 -5.585,-4.693 -6.041,-7.984 -0.346,-2.494 -1.451,-4.965 -2.063,-7.455 -0.722,-2.938 -1.619,-4.221 -3.999,-5.979 -1.683,-1.24 -4.605,-3.584 -3.007,-5.949 z" />
        </g>
        <g
           id="g2301">
          <path
             style="fill:#fff9ec;stroke:#000000"
             inkscape:connector-curvature="0"
             id="path2293"
             d="m 42.102,747.73 c 0.126,-2.375 -0.259,-4.68 2.381,-5.617 1.371,-0.486 2.103,-0.479 2.156,1.08 0.033,0.975 -0.127,1.953 -0.273,2.912 -0.123,0.809 -0.285,1.492 -0.514,2.25 -0.539,1.791 -0.352,3.465 -0.609,5.283 -0.228,1.611 -1.097,2.715 -2.847,2.299 -1.221,-2.334 -0.427,-5.705 -0.294,-8.207 z" />
          <path
             style="fill:#fff9ec;stroke:#000000"
             inkscape:connector-curvature="0"
             id="path2295"
             d="m 43.409,734.292 c 0.344,-1.877 0.855,-3.934 0.767,-5.854 -0.041,-0.883 -0.403,-1.629 -0.292,-2.551 0.058,-0.479 0.332,-2.336 0.792,-2.584 1.508,-0.816 4.24,0.139 4.92,1.67 0.932,2.104 -0.892,4.031 -1.438,6.008 -0.855,3.096 -0.24,11.773 -2.818,12.736 -5.302,1.98 -2.373,-7.018 -1.931,-9.425 z" />
          <path
             style="fill:#fff9ec;stroke:#000000"
             inkscape:connector-curvature="0"
             id="path2297"
             d="m 56.345,698.751 c 0.559,2.662 -1.179,3.906 -2.425,6.023 -2.212,3.76 -2.251,9.455 -2.068,13.762 0.095,2.225 1.396,4.789 -0.688,6.332 -1.379,1.021 -4.929,0.998 -6.244,0.063 -2.429,-1.727 -1.13,-4.139 0.176,-5.945 1.392,-1.922 1.918,-3.693 2.256,-6.006 0.735,-5.031 -3.319,-11.627 1.153,-15.846 2.662,-2.511 6.974,-2.502 7.84,1.617 z" />
          <path
             style="fill:#fff9ec;stroke:#000000"
             inkscape:connector-curvature="0"
             id="path2299"
             d="m 52.486,673.974 c 0,-3.105 -0.533,-6.432 0.354,-9.465 1.122,-3.842 4.751,-2.939 7.583,-1.389 2.728,1.492 3.065,5.379 1.712,7.936 -2.932,5.539 -3.46,9.809 -3.714,15.18 -0.195,4.139 1.634,9.615 -2.998,11.516 -5.893,2.418 -8.58,-2.24 -7.07,-7.021 0.806,-2.553 3.368,-4.998 3.879,-7.686 0.543,-2.864 0.254,-6.092 0.254,-9.071 z" />
        </g>
        <g
           id="g2311">
          <path
             style="fill:#fff9ec;stroke:#000000"
             inkscape:connector-curvature="0"
             id="path2303"
             d="m 22.852,733.314 c 0.401,-0.285 1.447,0.506 1.752,0.832 0.442,0.471 0.894,1.07 0.498,1.666 -0.832,1.252 -1.161,2.729 -1.499,4.002 -0.396,1.494 -0.285,3.027 -0.668,4.5 -0.499,1.916 -2.068,2.145 -2.832,0.834 -0.461,-0.791 -0.688,-2.121 -0.333,-2.918 0.425,-0.949 0.952,-2.164 1.166,-3.25 0.281,-1.428 -0.029,-5.668 2.082,-5.666" />
          <path
             style="fill:#fff9ec;stroke:#000000"
             inkscape:connector-curvature="0"
             id="path2305"
             d="m 25.346,720.98 c 0.097,-0.975 -0.109,-2.697 0.685,-3.447 0.902,-0.852 2.972,-0.531 3.824,0.195 0.93,0.795 1.252,2.48 0.902,3.59 -0.401,1.27 -1.379,2.271 -1.835,3.525 -0.904,2.482 -1.094,9.875 -3.813,10.393 -5.851,1.117 -1.622,-5.719 -0.811,-7.549 0.914,-2.061 0.824,-4.436 1.048,-6.707 z" />
          <path
             style="fill:#fff9ec;stroke:#000000"
             inkscape:connector-curvature="0"
             id="path2307"
             d="m 39.645,699.037 c -1.021,1.682 -2.391,3.344 -3.182,5.193 -0.776,1.814 -1.495,3.813 -2.11,5.758 -0.687,2.174 0.277,5.637 -0.551,7.438 -1.409,3.063 -8.428,-0.125 -8.212,-2.457 0.145,-1.566 2.015,-3.313 2.831,-4.668 0.997,-1.656 1.265,-3.207 1.737,-5.07 1.026,-4.053 -0.932,-11.398 5.046,-12 1.419,-0.143 3.6,-0.543 4.333,0.9 0.849,1.671 1.111,3.253 0.108,4.906 z" />
          <path
             style="fill:#fff9ec;stroke:#000000"
             inkscape:connector-curvature="0"
             id="path2309"
             d="m 52.491,664.382 c 0.171,3.834 -3.597,9.117 -5.012,12.801 -1.736,4.516 -2.555,8.84 -3.481,13.492 -0.275,1.379 -0.622,3.961 -2.244,4.512 -1.352,0.461 -4.15,0.877 -5.9,-0.457 -2.578,-1.963 -2.216,-5.578 0.056,-8.721 1.975,-2.732 2.896,-5.162 3.833,-8.25 1.112,-3.668 1.917,-7.584 2.236,-11.346 0.11,-1.299 -0.175,-3.213 0.457,-4.314 1.327,-2.316 2.672,-4.602 5.58,-3.15 1.847,0.924 4.375,3.193 4.475,5.433 z" />
        </g>
        <g
           id="g2319">
          <path
             style="fill:#fff9ec;stroke:#000000"
             inkscape:connector-curvature="0"
             id="path2313"
             d="m 4.769,686.523 c 0.934,-0.754 1.712,-1.674 2.696,-2.371 0.536,-0.377 1.126,-0.713 1.771,-0.859 0.707,-0.16 1.198,0.025 1.818,0.357 0.278,0.15 0.603,0.4 0.829,0.609 0.554,0.51 0.807,1.178 0.633,1.936 -0.151,0.662 -0.791,1.037 -1.32,1.379 -1.928,1.246 -3.099,1.959 -4.417,3.752 -0.821,1.117 -1.855,3.453 -3.333,3.406 -1.587,-0.053 -3.291,-1.99 -2.885,-3.418 0.291,-0.875 0.541,-1.166 1.792,-2.416 0.833,-0.834 1.485,-1.625 2.416,-2.375 z" />
          <path
             style="fill:#fff9ec;stroke:#000000"
             inkscape:connector-curvature="0"
             id="path2315"
             d="m 14.803,675.181 c 0.926,-1.199 1.223,-2.67 1.71,-4.057 0.409,-1.164 2.018,-2.234 3.1,-2.633 0.456,-0.168 1.049,-0.273 1.532,-0.344 1.157,-0.172 2.371,-0.482 3.204,0.51 0.724,0.861 1.208,2.145 1.253,3.268 0.124,3.107 -2.108,3.77 -4.312,5.061 -1.738,1.02 -3.204,2.473 -4.255,4.189 -0.908,1.484 -1.009,4.43 -2.677,5.311 -1.739,0.92 -4.701,-0.484 -5.456,-2.25 -1.002,-2.344 0.383,-4.561 1.957,-5.943 1.144,-1.002 2.999,-1.889 3.944,-3.112 z" />
          <path
             style="fill:#fff9ec;stroke:#000000"
             inkscape:connector-curvature="0"
             id="path2317"
             d="m 31.159,656.787 c 1.629,-1.172 2.789,-2.898 4.48,-3.984 0.858,-0.551 1.751,-0.799 2.759,-0.83 0.996,-0.029 2.223,-0.266 3.091,0.371 2.077,1.527 3.191,5.111 1.426,7.199 -2.306,2.727 -6.331,3.412 -9.062,5.688 -2.698,2.248 -3.592,7.844 -7.943,5.943 -3.146,-1.373 -6.723,-4.775 -1.557,-8.943 2.777,-2.241 4.024,-3.446 6.806,-5.444 z" />
        </g>
      </g>
    </g>
  </g>
</svg>
