<?xml version="1.0" encoding="UTF-8" standalone="no"?>
<!-- Created with Inkscape (http://www.inkscape.org/) -->

<svg
   xmlns:dc="http://purl.org/dc/elements/1.1/"
   xmlns:cc="http://creativecommons.org/ns#"
   xmlns:rdf="http://www.w3.org/1999/02/22-rdf-syntax-ns#"
   xmlns:svg="http://www.w3.org/2000/svg"
   xmlns="http://www.w3.org/2000/svg"
   xmlns:sodipodi="http://sodipodi.sourceforge.net/DTD/sodipodi-0.dtd"
   xmlns:inkscape="http://www.inkscape.org/namespaces/inkscape"
   width="20.431135mm"
   height="91.045906mm"
   viewBox="0 0 20.431135 91.045906"
   version="1.1"
   id="svg6266"
   inkscape:version="0.92.4 (5da689c313, 2019-01-14)"
   sodipodi:docname="rleg.svg">
  <defs
     id="defs6260" />
  <sodipodi:namedview
     id="base"
     pagecolor="#ffffff"
     bordercolor="#666666"
     borderopacity="1.0"
     inkscape:pageopacity="0.0"
     inkscape:pageshadow="2"
     inkscape:zoom="0.35"
     inkscape:cx="450.03858"
     inkscape:cy="312.05526"
     inkscape:document-units="mm"
     inkscape:current-layer="layer1"
     showgrid="false"
     inkscape:window-width="1225"
     inkscape:window-height="768"
     inkscape:window-x="0"
     inkscape:window-y="0"
     inkscape:window-maximized="1" />
  <metadata
     id="metadata6263">
    <rdf:RDF>
      <cc:Work
         rdf:about="">
        <dc:format>image/svg+xml</dc:format>
        <dc:type
           rdf:resource="http://purl.org/dc/dcmitype/StillImage" />
        <dc:title></dc:title>
      </cc:Work>
    </rdf:RDF>
  </metadata>
  <g
     inkscape:label="Layer 1"
     inkscape:groupmode="layer"
     id="layer1"
     transform="translate(202.22747,-140.35205)">
    <path
       style="fill:#fff9ec;stroke:#000000;stroke-width:0.26458332"
       inkscape:connector-curvature="0"
       id="path493"
       d="m -183.04276,219.45246 c -0.77628,0.28152 -1.58935,-0.92075 -2.06851,-1.34355 -0.3937,-0.34767 -1.07368,-0.77973 -1.5994,-0.89191 -0.53049,-0.11325 -0.88054,-0.005 -1.32319,0.26458 -0.82867,0.50535 -1.4597,1.30016 -2.31722,1.76742 -0.20082,0.109 -0.36089,0.19182 -0.58499,0.25902 -0.31565,0.0939 -0.35507,0.0992 -0.59717,-0.009 -0.2577,-0.11536 -0.55509,-0.36327 -0.7358,-0.58658 -0.40984,-0.50482 -0.33179,-1.15914 -0.0167,-1.68619 0.35031,-0.58605 0.55801,-1.19935 1.0832,-1.66079 0.90012,-0.79163 2.0574,-2.12196 3.28163,-2.28309 0.73448,-0.0971 1.55522,0.0537 2.20848,0.32253 0.66913,0.2749 1.24089,0.79931 1.74625,1.29963 0.39767,0.3937 0.66463,0.84535 0.98425,1.29646 0.40772,0.57468 0.23124,1.20915 0.3593,1.84071 0.099,0.48657 0.1614,1.19962 -0.42016,1.41102 z" />
    <path
       style="fill:#fff9ec;stroke:#000000;stroke-width:0.26458332"
       inkscape:connector-curvature="0"
       id="path495"
       d="m -193.30224,210.53918 c -0.008,-3.72084 -0.72099,-7.42077 -1.09723,-11.11515 -0.10927,-1.07288 -0.1016,-2.10846 -0.26141,-3.175 -1.43139,-9.54934 -2.8395,-19.43761 -3.58616,-29.19571 -0.34501,-4.51247 -0.41989,-9.27338 -1.57242,-13.66996 -0.32147,-1.22635 -1.01414,-2.24526 -1.32688,-3.41075 -0.46091,-1.71873 1.9341,-2.89348 3.31073,-2.43972 1.32424,0.43603 1.41076,1.76583 1.29011,2.97233 -0.31142,3.11256 -0.14473,5.97217 0.0294,9.1313 0.29051,5.26732 1.08029,10.47644 1.5875,15.70355 0.94006,9.6856 2.05449,18.89972 3.40704,28.33978 0.38232,2.66965 1.65523,6.67544 1.09405,9.36996 -0.19791,0.94985 -1.75604,5.58006 -2.78157,4.36509 -0.83661,-0.99271 -0.28098,-3.46948 -0.18203,-4.63285 0.0638,-0.74824 0.0908,-1.49622 0.0889,-2.24287 z" />
    <path
       style="fill:#fff9ec;stroke:#000000;stroke-width:0.26458332"
       inkscape:connector-curvature="0"
       id="path501"
       d="m -191.20039,196.05218 c -0.43974,-4.24841 -0.9226,-8.49259 -1.32847,-12.74339 -0.16563,-1.73593 -0.34343,-3.47054 -0.52626,-5.20435 -0.17833,-1.68884 -0.36089,-3.37715 -0.52361,-5.0673 -0.41407,-4.30927 -0.50668,-8.66035 -1.13506,-12.9466 -0.32941,-2.24684 -0.80672,-4.48971 -1.63724,-6.60796 -0.82524,-2.10476 -7.83273,-10.04226 -2.95249,-11.34772 1.329,-0.3556 3.11812,0.0728 3.57479,-0.48948 0.81385,-1.0025 1.57638,-1.3544 3.04614,-1.06151 1.22794,0.24448 2.0537,0.69771 3.44991,0.49186 1.89812,-0.27966 3.75655,0.63209 3.69702,3.31444 -0.0246,1.10225 -1.10384,1.88621 -1.62692,2.7641 -1.34091,2.24949 -1.40256,5.25092 -1.54808,7.8486 -0.33708,6.02298 -0.18336,11.95732 0.26723,17.97712 0.52573,7.02495 0.64505,14.08191 1.24195,21.09946 0.40032,4.70561 0.14103,9.63506 2.10953,14.04302 0.82179,1.84124 2.68446,3.19352 3.09827,5.22076 0.13943,0.68316 0.12991,2.6117 -0.85302,2.80802 -0.77444,0.15505 -1.1221,-0.95646 -1.43695,-1.46235 -0.45985,-0.73951 -1.26418,-1.29963 -2.15609,-1.27529 -0.8935,0.0249 -1.59491,0.63765 -2.41618,0.90011 -0.84534,0.26988 -1.98808,0.0852 -2.60085,-0.60351 -0.29924,-0.33682 -0.45773,-0.87286 -0.42889,-1.32239 0.13229,-2.05052 1.25121,-1.18798 1.45521,-3.63802 0.19844,-2.38125 -0.0156,-4.72519 -0.21246,-6.9514 -0.16986,-1.91638 -0.35931,-3.83143 -0.55748,-5.74622 z" />
    <g
       transform="matrix(0.26458333,0,0,0.26458333,-252.2985,-100.0298)"
       id="g563">
      <g
         id="g515">
        <path
           d="m 219.609,1212.923 c 0.318,-0.463 1.236,-1.354 1.79,-1.666 0.933,-0.525 1.823,-1.123 2.696,-1.74 1.939,-1.375 3.775,-2.889 5.681,-4.307 3.561,-2.652 8.01,-4.43 12.49,-4.908 2.231,-0.238 4.381,-0.041 6.347,1.006 4.625,2.467 9.45,3.814 13.209,6.807 3.073,2.445 0.907,9.207 1.291,12.66 1.125,10.125 -3.5,16.25 -12.125,15.625 -8.041,-0.584 -40.455,-10.285 -31.379,-23.477 z"
           id="path505"
           inkscape:connector-curvature="0"
           style="fill:#fff9ec;stroke:#000000" />
        <path
           d="m 220.916,1208.417 c 0.901,-0.686 1.82,-1.201 2.877,-1.512 0.912,-0.27 1.61,0.053 2.431,0.588 0.502,0.328 0.725,1.02 0.833,1.617 0.283,1.566 -0.081,3.348 -0.609,4.805 -0.987,2.723 -3.674,6.947 -6.622,7.025 -2.662,0.07 -4.601,-5.422 -2.992,-7.441 0.531,-0.668 1.26,-1.102 1.783,-1.768 0.94,-1.192 1.11,-2.409 2.299,-3.314 z"
           id="path507"
           inkscape:connector-curvature="0"
           style="fill:#fff9ec;stroke:#000000" />
        <path
           d="m 221.337,1216.183 c -0.547,-5.617 4.552,-12.469 9.804,-9.285 1.527,0.926 2.23,2.73 2.342,4.59 0.241,4.049 -2.104,8.727 -5.759,9.832 -3.597,1.088 -5.91,-0.24 -6.387,-5.137 z"
           id="path509"
           inkscape:connector-curvature="0"
           style="fill:#fff9ec;stroke:#000000" />
        <path
           d="m 240.875,1225.314 c -4.321,2.068 -9.312,1.086 -11.5,-3.9 -0.977,-2.223 -1.197,-4.801 -0.813,-7.221 0.357,-2.242 1.645,-5.498 3.576,-6.598 0.828,-0.471 1.888,-0.693 2.726,-1.137 2.837,-1.506 6.354,-2.859 9.12,-0.469 1.724,1.492 2.442,3.963 2.602,6.301 0.32,4.715 -1.493,11.006 -5.711,13.024 z"
           id="path511"
           inkscape:connector-curvature="0"
           style="fill:#fff9ec;stroke:#000000" />
        <path
           d="m 246.738,1206.867 c 9.297,-1.588 15.148,18.523 5.637,22.242 -6.961,2.721 -9.633,-3.465 -10.635,-9.469 -1.353,-8.102 -1.978,-13.186 6.998,-12.773"
           id="path513"
           inkscape:connector-curvature="0"
           style="fill:#fff9ec;stroke:#000000" />
      </g>
      <g
         id="g527">
        <path
           d="m 204.394,1226.699 c 0.82,2.23 6.08,2.002 8.393,0.514 2.361,-1.52 4.839,-3.775 4.967,-6.723 0.068,-1.572 0.547,-6.332 -2.278,-5.053 -1.823,0.824 -3.773,2.561 -5.496,3.621 -1.871,1.154 -3.366,2.791 -4.675,4.574 -0.969,1.321 -1.183,2.328 -0.911,3.067 z"
           id="path517"
           inkscape:connector-curvature="0"
           style="fill:#fff9ec;stroke:#000000" />
        <path
           d="m 211.982,1229.085 c -1.871,-0.934 -3.104,-3.219 -3.247,-5.428 -0.171,-2.635 1.984,-3.535 3.98,-4.539 1.736,-0.873 3.496,-1.877 4.872,-3.271 1.286,-1.305 2.189,-3.83 3.584,-1.066 1.063,2.105 0.809,4.701 0.149,6.885 -0.918,3.039 -3.052,6.809 -6.346,7.699 -1.105,0.299 -2.118,0.158 -2.992,-0.28 z"
           id="path519"
           inkscape:connector-curvature="0"
           style="fill:#fff9ec;stroke:#000000" />
        <path
           d="m 217.387,1230.177 c -0.512,-0.084 -1.033,-0.203 -1.565,-0.357 -2.812,-0.816 -5.759,-4 -3.384,-6.705 1.039,-1.184 2.577,-1.928 3.658,-3.119 1.217,-1.34 2.111,-2.926 3.214,-4.355 1.149,-1.49 1.791,-2.945 3.911,-2.791 2.051,0.15 3.346,1.76 4.28,3.436 0.868,1.557 2.333,3.168 2.481,5.025 0.232,2.906 -2.544,5.314 -4.653,6.854 -2.522,1.836 -5.081,2.481 -7.942,2.012 z"
           id="path521"
           inkscape:connector-curvature="0"
           style="fill:#fff9ec;stroke:#000000" />
        <path
           d="m 226.733,1217.962 c -0.057,-0.959 0.019,-1.816 1.026,-2.574 1.89,-1.42 4.576,0 6.308,1.014 1.783,1.045 4.438,2.076 4.841,4.328 0.394,2.201 -0.541,4.055 -1.575,5.896 -1.041,1.857 -1.314,4.018 -2.568,5.855 -2.035,2.984 -5.018,5.217 -8.775,4.98 -3.234,-0.203 -5.597,-3.039 -6.101,-6.145 -0.474,-2.918 1.229,-3.898 3.121,-5.607 1.362,-1.229 3.711,-4.189 3.802,-5.996 0.03,-0.616 -0.046,-1.2 -0.079,-1.751 z"
           id="path523"
           inkscape:connector-curvature="0"
           style="fill:#fff9ec;stroke:#000000" />
        <path
           d="m 238.967,1220.431 c 0.127,-0.541 0.32,-1.064 0.662,-1.545 1.214,-1.703 3.43,-3.295 5.608,-3.092 2.561,0.24 5.207,2.072 6.414,4.283 1.209,2.217 1.598,5.096 0.446,7.416 -1.46,2.945 -3.536,0.484 -4.832,4.502 -0.406,1.262 -0.761,2.656 -0.751,3.99 0.007,1.014 0.613,2.426 0.037,3.363 -1.125,1.832 -4.865,2.152 -6.716,2.08 -2.54,-0.102 -5.276,-1.047 -7.069,-2.902 -2.297,-2.377 -3.773,-5.285 -1.4,-8.113 1.881,-2.24 4.856,-3.432 6.54,-5.861 0.844,-1.219 0.735,-2.73 1.061,-4.121 z"
           id="path525"
           inkscape:connector-curvature="0"
           style="fill:#fff9ec;stroke:#000000" />
      </g>
      <g
         id="g539">
        <path
           d="m 196.396,1235.689 c 3.208,0.799 6.566,-1.664 8.203,-4.236 0.853,-1.342 3.175,-6.646 -0.366,-6.488 -1.755,0.078 -3.65,2.746 -4.883,3.771 -1.262,1.049 -2.418,0.746 -3.704,1.408 -2.047,1.055 -1.394,5.01 0.75,5.545 z"
           id="path529"
           inkscape:connector-curvature="0"
           style="fill:#fff9ec;stroke:#000000" />
        <path
           d="m 202.042,1236.226 c -1.503,-1.068 -1.943,-3.563 -0.86,-5.201 0.833,-1.26 2.039,-1.59 3.301,-2.215 1.96,-0.969 4.953,-2.641 7.296,-2.303 0.329,1.254 1.962,0.775 1.535,2.623 -0.278,1.203 -1.696,2.283 -2.582,3.025 -1.698,1.424 -4.122,4.057 -6.355,4.514 -0.934,0.192 -1.723,-0.01 -2.335,-0.443 z"
           id="path531"
           inkscape:connector-curvature="0"
           style="fill:#fff9ec;stroke:#000000" />
        <path
           d="m 215.846,1235.181 c -2.538,1.252 -6.408,2.229 -9.175,1.268 -1.679,-0.584 -3.17,-3.117 -1.634,-4.656 0.573,-0.574 1.61,-0.537 2.347,-0.713 1.301,-0.309 2.294,-0.975 3.501,-1.49 0.794,-0.34 1.452,-0.508 2.226,-0.887 1.746,-0.854 3.721,-2.055 5.381,-0.291 2.272,2.414 -0.384,5.654 -2.646,6.769 z"
           id="path533"
           inkscape:connector-curvature="0"
           style="fill:#fff9ec;stroke:#000000" />
        <path
           d="m 223.706,1236.966 c -0.726,0.455 -1.449,0.889 -2.137,1.463 -2.573,2.146 -6.287,4.512 -9.559,2.381 -1.292,-0.842 -3.74,-3.434 -2.53,-5.197 1.494,-2.176 4.087,-2.779 6.375,-3.715 1.512,-0.619 2.415,-2.055 3.757,-2.783 1.415,-0.77 2.686,0.168 4.119,0.35 3.119,0.396 3.272,5.172 1.108,6.746 -0.375,0.273 -0.755,0.517 -1.133,0.755 z"
           id="path535"
           inkscape:connector-curvature="0"
           style="fill:#fff9ec;stroke:#000000" />
        <path
           d="m 222.766,1238.589 c -0.598,-2.436 1.578,-2.773 3.386,-3.234 2.645,-0.674 4.246,-2.773 6.693,-3.734 3.818,-1.5 9.536,1.953 9.649,6.084 0.034,1.24 -0.317,2.494 -0.976,3.543 -0.932,1.488 -2.001,1.539 -3.681,1.221 -2.567,-0.486 -3.924,1.354 -4.53,3.488 -0.684,2.41 -2.577,3.08 -4.665,1.777 -2.535,-1.586 -3.513,-3.645 -4.704,-6.27 -0.368,-0.814 -0.922,-1.857 -1.172,-2.875 z"
           id="path537"
           inkscape:connector-curvature="0"
           style="fill:#fff9ec;stroke:#000000" />
      </g>
      <g
         id="g551">
        <path
           d="m 213.356,1244.388 c 0.296,-0.311 0.688,-0.611 1.198,-0.91 1.781,-1.039 3.998,-1.414 5.685,-2.59 1.307,-0.908 3.294,-3.963 5.193,-2.25 0.605,0.545 0.84,1.307 1.478,1.879 0.675,0.604 1.535,1.025 2.177,1.668 1.402,1.408 1.521,3.314 -0.271,4.551 -1.136,0.785 -2.117,0.217 -3.244,0.609 -2.547,0.891 -3.294,4.146 -6.333,4.668 -3.075,0.529 -5.73,-0.596 -6.353,-3.402 -0.4,-1.805 -0.613,-3.082 0.47,-4.223 z"
           id="path541"
           inkscape:connector-curvature="0"
           style="fill:#fff9ec;stroke:#000000" />
        <path
           d="m 200.042,1231.589 c 0.02,0.148 0.027,0.305 0.023,0.475 -0.043,1.826 -2.144,3.9 -3.75,4.686 -1.184,0.58 -2.543,0.168 -2.983,-1.184 -1.427,-4.389 6.219,-7.682 6.71,-3.977 z"
           id="path543"
           inkscape:connector-curvature="0"
           style="fill:#fff9ec;stroke:#000000" />
        <path
           d="m 200.424,1238.982 c -0.854,0.328 -1.8,0.285 -2.508,-0.463 -1.434,-1.51 -0.382,-4.098 0.775,-5.381 1.365,-1.516 4.232,-2.443 5.96,-0.885 0.482,0.434 0.649,1.137 0.504,1.807 -0.366,1.682 -2.476,3.342 -3.754,4.357 -0.295,0.235 -0.628,0.43 -0.977,0.565 z"
           id="path545"
           inkscape:connector-curvature="0"
           style="fill:#fff9ec;stroke:#000000" />
        <path
           d="m 205.309,1240.871 c -0.33,0.168 -0.702,0.291 -1.164,0.355 -1.753,0.242 -2.601,-1.416 -2.43,-2.896 0.151,-1.314 1.057,-2.52 2.002,-3.387 1.864,-1.711 5.206,-2.691 5.869,0.639 0.358,1.803 -1.284,2.834 -2.504,3.896 -0.656,0.57 -1.135,1.066 -1.773,1.393 z"
           id="path547"
           inkscape:connector-curvature="0"
           style="fill:#fff9ec;stroke:#000000" />
        <path
           d="m 209.938,1242.761 c -0.41,0.299 -0.698,0.801 -1.12,1.031 -1.051,0.574 -1.792,-0.135 -2.021,-1.145 -0.509,-2.246 -0.853,-3.934 1.144,-5.553 1.389,-1.127 2.602,-2.246 4.331,-2.814 1.973,-0.648 5.323,1.814 4.943,3.998 -0.167,0.957 -0.999,1.105 -1.728,1.566 -1.22,0.771 -2.497,1.248 -3.754,1.945 -0.573,0.318 -1.215,0.578 -1.747,0.936 -0.016,0.013 -0.032,0.025 -0.048,0.036 z"
           id="path549"
           inkscape:connector-curvature="0"
           style="fill:#fff9ec;stroke:#000000" />
      </g>
      <g
         id="g561">
        <path
           d="m 194.542,1241.048 c -1.98,0.703 -6.135,-0.393 -4.376,-3.305 1.085,-1.797 5.879,-5.676 7.455,-1.953 0.678,1.602 -1.633,4.747 -3.079,5.258 z"
           id="path553"
           inkscape:connector-curvature="0"
           style="fill:#fff9ec;stroke:#000000" />
        <path
           d="m 196.459,1244.484 c -2.644,0.375 -4.153,-2.613 -3.063,-4.939 0.621,-1.324 2.182,-2.35 3.34,-3.07 2.078,-1.291 4.535,-0.574 4.51,2.293 -0.023,2.419 -2.501,5.39 -4.787,5.716 z"
           id="path555"
           inkscape:connector-curvature="0"
           style="fill:#fff9ec;stroke:#000000" />
        <path
           d="m 204.772,1242.966 c -1.85,2.334 -7.816,4.045 -7.939,0.373 -0.102,-3.031 2.905,-6.143 5.996,-5.834 3.712,0.368 4.077,2.768 1.943,5.461 z"
           id="path557"
           inkscape:connector-curvature="0"
           style="fill:#fff9ec;stroke:#000000" />
        <path
           d="m 205.926,1244.871 c -2.783,1.604 -5.893,4.025 -6.425,-0.807 -0.118,-1.055 3.162,-2.93 3.943,-3.266 1.491,-0.645 4.98,-1.416 5.735,0.539 0.863,2.233 -1.886,2.745 -3.253,3.534 z"
           id="path559"
           inkscape:connector-curvature="0"
           style="fill:#fff9ec;stroke:#000000" />
      </g>
    </g>
  </g>
</svg>
