<?xml version="1.0" encoding="UTF-8" standalone="no"?>
<!-- Created with Inkscape (http://www.inkscape.org/) -->

<svg
   xmlns:dc="http://purl.org/dc/elements/1.1/"
   xmlns:cc="http://creativecommons.org/ns#"
   xmlns:rdf="http://www.w3.org/1999/02/22-rdf-syntax-ns#"
   xmlns:svg="http://www.w3.org/2000/svg"
   xmlns="http://www.w3.org/2000/svg"
   xmlns:sodipodi="http://sodipodi.sourceforge.net/DTD/sodipodi-0.dtd"
   xmlns:inkscape="http://www.inkscape.org/namespaces/inkscape"
   width="31.893606mm"
   height="45.33215mm"
   viewBox="0 0 31.893606 45.33215"
   version="1.1"
   id="svg2862"
   inkscape:version="0.92.4 (5da689c313, 2019-01-14)"
   sodipodi:docname="skull.svg">
  <defs
     id="defs2856" />
  <sodipodi:namedview
     id="base"
     pagecolor="#ffffff"
     bordercolor="#666666"
     borderopacity="1.0"
     inkscape:pageopacity="0.0"
     inkscape:pageshadow="2"
     inkscape:zoom="0.98994949"
     inkscape:cx="-14.453526"
     inkscape:cy="-94.402813"
     inkscape:document-units="mm"
     inkscape:current-layer="layer1"
     showgrid="false"
     inkscape:window-width="1225"
     inkscape:window-height="768"
     inkscape:window-x="0"
     inkscape:window-y="0"
     inkscape:window-maximized="1" />
  <metadata
     id="metadata2859">
    <rdf:RDF>
      <cc:Work
         rdf:about="">
        <dc:format>image/svg+xml</dc:format>
        <dc:type
           rdf:resource="http://purl.org/dc/dcmitype/StillImage" />
        <dc:title />
      </cc:Work>
    </rdf:RDF>
  </metadata>
  <g
     inkscape:label="Layer 1"
     inkscape:groupmode="layer"
     id="layer1"
     transform="translate(-1.6064413,-1.5333453)">
    <g
       transform="matrix(0.26458333,0,0,0.26458333,-52.667932,1.5341499)"
       id="g2501">
      <g
         id="g2439">
        <g
           id="g2431">
          <path
             style="fill:#fff9ec;stroke:#000000"
             inkscape:connector-curvature="0"
             id="path2425"
             d="m 207.076,80.854 c 1.111,4.842 1.756,11.046 5.232,14.891 3.754,4.152 5.1,1.201 6.076,-2.955 0.771,-3.284 0.736,-7.039 0.736,-10.479 0,-15.468 5.57,-29.786 4.013,-45.338 -0.243,-2.438 -1.749,-7.047 -4.399,-7.824 -3.865,-1.133 -5.061,4.506 -6.301,6.899 -3.51,6.764 -5.135,14.278 -5.881,21.768 -0.726,7.302 -1.117,15.896 0.524,23.038 z" />
          <path
             style="fill:#fff9ec;stroke:#000000"
             inkscape:connector-curvature="0"
             id="path2427"
             d="m 324.007,81.604 c -1.111,4.842 -1.756,11.046 -5.232,14.891 -3.754,4.152 -5.1,1.201 -6.076,-2.955 -0.771,-3.284 -0.736,-7.039 -0.736,-10.479 0,-15.468 -5.57,-29.786 -4.014,-45.338 0.244,-2.438 1.75,-7.047 4.4,-7.824 3.865,-1.133 5.061,4.506 6.301,6.899 3.51,6.764 5.135,14.278 5.881,21.768 0.726,7.302 1.117,15.896 -0.524,23.038 z" />
          <path
             style="fill:#fff9ec;stroke:#000000"
             inkscape:connector-curvature="0"
             id="path2429"
             d="m 291.42,116.604 c 1.63,-2.552 7.236,-4.476 10.116,-4.05 3.611,0.534 5.984,4.029 9.818,3.996 8.27,-0.07 16.777,-10.699 12.82,-18.758 -0.68,-1.384 -1.289,-1.225 -2.492,-2.057 -4.311,-2.982 -4.809,-7.208 -5.875,-11.938 -1.195,-5.309 -1.643,-11.066 -1.383,-16.493 0.205,-4.255 1.121,-8.512 1.641,-12.764 0.391,-3.203 1.021,-6.472 1.248,-9.681 0.354,-4.985 0.15,-10.711 -1.932,-15.318 -3.391,-7.507 -10.523,-14.714 -17.139,-19.539 -5.427,-3.958 -11.815,-6.42 -18.379,-7.706 -3.777,-0.74 -7.609,-1.55 -11.488,-1.75 -5.536,-0.285 -12.314,0.729 -17.769,1.756 -2.594,0.487 -4.499,1.39 -6.993,2.443 -3.79,1.601 -7.491,2.995 -11.057,5.23 -6.337,3.972 -11.824,10.332 -15.824,16.518 -3.865,5.977 -3.525,14.748 -2.625,21.498 0.478,3.581 1.845,6.95 2.287,10.528 0.457,3.681 0.352,7.33 0.475,11.021 0.193,5.789 -1.273,13.477 -2.933,19.075 -0.646,2.178 -1.237,4.71 -2.628,6.554 -1.472,1.949 -4.121,2.825 -5.15,5.134 -2.008,4.498 2.164,10.979 5.7,13.555 3.172,2.311 7.767,3.381 11.618,2.646 4.332,-0.827 8.646,-3.387 13.143,-1.958 5.657,1.798 3.537,6.864 2.979,10.996 -0.38,2.812 0.986,3.586 3.713,4.486 5.689,1.877 12.591,2.06 18.547,1.768 6.62,-0.325 13.229,1.117 19.777,0.257 3.813,-0.501 9.646,-1.876 10.539,-6.31 0.649,-3.203 -2.982,-5.648 -0.754,-9.139 z" />
        </g>
        <path
           style="fill:#b0b296;stroke:#000000"
           inkscape:connector-curvature="0"
           id="path2433"
           d="m 237.621,66.799 c -8.741,1.871 -14.492,7.63 -15.556,16.5 -0.851,7.094 2.767,13.063 10.525,13.734 12.625,1.093 26.825,-12.483 20.273,-25.205 -3.77,-7.32 -13.318,-6.668 -19.992,-4.029" />
        <path
           style="fill:#b0b296;stroke:#000000"
           inkscape:connector-curvature="0"
           id="path2435"
           d="m 295.089,67.049 c 8.74,1.871 14.492,7.63 15.555,16.5 0.852,7.094 -2.766,13.063 -10.523,13.734 -12.626,1.093 -26.825,-12.483 -20.273,-25.205 3.77,-7.32 13.318,-6.668 19.992,-4.029" />
        <path
           style="fill:#b0b296;stroke:#000000"
           inkscape:connector-curvature="0"
           id="path2437"
           d="m 266.724,113.7 c 7.689,-0.211 9.818,-7.86 8.098,-14.463 -0.594,-2.279 -2.195,-4.156 -2.801,-6.39 -0.389,-1.435 -0.174,-2.878 -0.603,-4.327 -0.869,-2.937 -3.047,-5.563 -6.348,-4.407 -4.025,1.411 -3.778,6.849 -5.249,10.13 -3.651,8.144 -5.15,19.789 6.903,19.457 z" />
      </g>
      <g
         id="g2499">
        <path
           style="fill:#fff9ec;stroke:#000000"
           inkscape:connector-curvature="0"
           id="path2441"
           d="m 313.722,106.162 c -2.969,-1.709 -8.268,3.835 -9.338,6.344 -2.633,6.175 -4.408,12.47 -7.339,18.474 -2.022,4.145 -3.183,6.675 -7.868,7.354 -5.131,0.744 -10.259,-0.252 -15.391,-0.422 -6.813,-0.225 -13.646,-0.087 -20.455,0.205 -4.29,0.184 -8.967,1.417 -11.979,-1.963 -2.843,-3.188 -5.451,-7.258 -7.231,-11.132 -1.796,-3.904 -2.523,-8.4 -4.263,-12.479 -1.07,-2.509 -6.368,-8.052 -9.338,-6.344 -2.89,1.663 -1.132,6.668 0.073,8.85 1.725,3.124 2.53,6.27 3.972,9.565 2.407,5.505 4.075,12.292 3.798,18.325 -0.125,2.703 -0.892,5.812 0.039,8.446 2.094,5.927 9.278,8.465 14.689,10.356 3.013,1.054 6.1,1.931 9.061,3.129 3.184,1.289 5.727,3.844 8.912,4.983 1.436,0.514 4.221,1.185 6.239,0.912 1.979,0.155 4.525,-0.467 5.876,-0.95 3.186,-1.14 5.729,-3.695 8.912,-4.984 2.961,-1.198 6.048,-2.075 9.061,-3.128 5.411,-1.891 12.596,-4.43 14.689,-10.356 0.93,-2.635 0.164,-5.744 0.039,-8.446 -0.277,-6.033 1.391,-12.82 3.797,-18.325 1.441,-3.296 2.248,-6.441 3.973,-9.565 1.205,-2.181 2.963,-7.186 0.072,-8.849 z" />
        <g
           id="g2471">
          <path
             style="fill:#ffffff;stroke:#040000;stroke-width:1.14859998"
             inkscape:connector-curvature="0"
             id="path2443"
             d="m 239.369,139.237 c 0.639,0.553 2.543,1.413 3.441,0.787 1.067,-0.743 1.959,-3.342 1.169,-4.501 -2.638,-3.875 -8.383,0.437 -4.61,3.714 z" />
          <path
             style="fill:#ffffff;stroke:#040000;stroke-width:1.14859998"
             inkscape:connector-curvature="0"
             id="path2445"
             d="m 245.099,135.208 c -0.445,-0.936 -1.7,-1.932 -2.785,-1.91 -0.491,0.009 -2.127,0.592 -2.307,1.131 -0.566,1.699 -0.074,4.267 0.941,5.853 0.332,0.521 0.83,1.114 1.393,1.361 0.97,0.421 0.863,0.132 1.549,-0.588 0.436,-0.46 1.47,-1.094 1.673,-1.69 0.239,-0.703 -0.134,-3.463 -0.464,-4.157 z" />
          <path
             style="fill:#ffffff;stroke:#040000;stroke-width:1.14859998"
             inkscape:connector-curvature="0"
             id="path2447"
             d="m 245.63,133.784 c -1.264,-0.192 -2.047,-1.306 -2.826,0.003 -0.41,0.69 -0.357,1.837 -0.271,2.629 0.152,1.395 1.248,4.758 2.663,5.389 1.811,0.808 3.476,-0.761 3.504,-2.599 0.007,-0.528 -0.605,-1.687 -0.708,-2.303 -0.104,-0.616 -0.059,-1.481 -0.307,-2.043 -0.543,-1.219 -1.957,-0.924 -2.829,-1.696" />
          <path
             style="fill:#ffffff;stroke:#040000;stroke-width:1.14859998"
             inkscape:connector-curvature="0"
             id="path2449"
             d="m 247.006,140.66 c 0.868,1 2.847,3.067 2.927,3.016 3.09,-1.998 2.536,-10.419 -1.936,-10.604 -3.302,-0.135 -2.359,5.369 -1.377,7.104 0.044,0.076 0.184,0.252 0.386,0.484 z" />
          <path
             style="fill:#ffffff;stroke:#040000;stroke-width:1.14859998"
             inkscape:connector-curvature="0"
             id="path2451"
             d="m 256.455,135.236 c 0.125,0.193 0.213,0.407 0.256,0.644 0.223,1.286 -0.68,3.581 -1.02,4.854 -0.308,1.139 -0.606,2.72 -1.672,3.382 -1.608,-1.357 -4.389,-9.362 -1.045,-10.044 1.154,-0.235 2.822,0.159 3.481,1.164 z" />
          <path
             style="fill:#ffffff;stroke:#040000;stroke-width:1.14859998"
             inkscape:connector-curvature="0"
             id="path2453"
             d="m 261.236,135.249 c 1.522,0.822 -0.49,8.62 -2.172,8.956 -1.652,0.332 -2.322,-4.717 -2.399,-5.792 -0.23,-3.18 1.601,-4.768 4.571,-3.164 z" />
          <path
             style="fill:#ffffff;stroke:#040000;stroke-width:1.14859998"
             inkscape:connector-curvature="0"
             id="path2455"
             d="m 266.712,134.854 c 1.045,0.33 0.291,4.609 0.122,5.361 -0.221,0.987 -0.319,3.296 -1.34,3.83 -2.221,1.164 -2.98,-3.354 -3.107,-4.587 -0.091,-0.899 -0.564,-2.114 -0.526,-2.977 0.106,-2.376 3.27,-2.126 4.851,-1.627 z" />
          <path
             style="fill:#ffffff;stroke:#040000;stroke-width:1.14859998"
             inkscape:connector-curvature="0"
             id="path2457"
             d="m 295.785,139.417 c -0.647,0.544 -2.561,1.378 -3.452,0.74 -1.057,-0.758 -1.914,-3.366 -1.108,-4.517 2.689,-3.837 8.375,0.552 4.56,3.777 z" />
          <path
             style="fill:#ffffff;stroke:#040000;stroke-width:1.14859998"
             inkscape:connector-curvature="0"
             id="path2459"
             d="m 290.108,135.312 c 0.457,-0.929 1.728,-1.909 2.812,-1.872 0.491,0.016 2.12,0.621 2.292,1.162 0.543,1.706 0.018,4.267 -1.019,5.841 -0.34,0.514 -0.846,1.102 -1.414,1.34 -0.974,0.409 -0.863,0.122 -1.54,-0.609 -0.429,-0.463 -1.454,-1.112 -1.648,-1.711 -0.232,-0.706 0.18,-3.461 0.517,-4.151 z" />
          <path
             style="fill:#ffffff;stroke:#040000;stroke-width:1.14859998"
             inkscape:connector-curvature="0"
             id="path2461"
             d="m 289.599,133.881 c 1.266,-0.175 2.061,-1.279 2.822,0.041 0.401,0.696 0.334,1.843 0.236,2.633 -0.171,1.392 -1.311,4.741 -2.732,5.354 -1.822,0.782 -3.467,-0.809 -3.471,-2.645 0,-0.528 0.629,-1.68 0.739,-2.296 0.115,-0.612 0.078,-1.48 0.334,-2.038 0.559,-1.212 1.973,-0.898 2.853,-1.659" />
          <path
             style="fill:#ffffff;stroke:#040000;stroke-width:1.14859998"
             inkscape:connector-curvature="0"
             id="path2463"
             d="m 288.127,140.739 c -0.879,0.987 -2.888,3.028 -2.967,2.975 -3.063,-2.039 -2.395,-10.452 2.08,-10.577 3.302,-0.092 2.285,5.401 1.283,7.122 -0.043,0.078 -0.189,0.248 -0.396,0.48 z" />
          <path
             style="fill:#ffffff;stroke:#040000;stroke-width:1.14859998"
             inkscape:connector-curvature="0"
             id="path2465"
             d="m 278.754,135.191 c -0.128,0.189 -0.22,0.403 -0.263,0.641 -0.241,1.28 0.63,3.587 0.955,4.865 0.29,1.142 0.567,2.727 1.624,3.405 1.628,-1.336 4.515,-9.305 1.179,-10.029 -1.15,-0.25 -2.823,0.12 -3.495,1.118 z" />
          <path
             style="fill:#ffffff;stroke:#040000;stroke-width:1.14859998"
             inkscape:connector-curvature="0"
             id="path2467"
             d="m 273.972,135.14 c -1.532,0.801 0.377,8.624 2.056,8.983 1.647,0.354 2.381,-4.687 2.473,-5.76 0.272,-3.177 -1.539,-4.787 -4.529,-3.223 z" />
          <path
             style="fill:#ffffff;stroke:#040000;stroke-width:1.14859998"
             inkscape:connector-curvature="0"
             id="path2469"
             d="m 268.831,135.194 c -1.04,0.348 -0.219,4.611 -0.037,5.363 0.236,0.983 0.372,3.29 1.399,3.809 2.24,1.127 2.928,-3.401 3.034,-4.638 0.078,-0.9 0.532,-2.122 0.479,-2.983 -0.142,-2.374 -3.304,-2.073 -4.875,-1.551 z" />
        </g>
        <g
           id="g2497">
          <path
             style="fill:#ffffff;stroke:#040000"
             inkscape:connector-curvature="0"
             id="path2473"
             d="m 240.847,126.917 c -0.291,-0.191 -0.609,-0.326 -0.949,-0.386 -1.143,2.182 -1.141,6.299 -0.391,8.705 0.152,0.482 2.714,-1.196 2.881,-1.396 0.645,-0.757 0.795,-1.39 0.764,-2.367 -0.04,-1.271 -0.854,-3.607 -2.305,-4.556 z" />
          <path
             style="fill:#ffffff;stroke:#040000"
             inkscape:connector-curvature="0"
             id="path2475"
             d="m 243.554,134.686 c 4.42,-1.71 1.775,-10.921 -0.809,-7.504 -0.679,0.896 -1.285,8.313 0.809,7.504 z" />
          <path
             style="fill:#ffffff;stroke:#040000"
             inkscape:connector-curvature="0"
             id="path2477"
             d="m 250.072,132.57 c 1.078,-2.782 -1.067,-8.063 -3.817,-5.741 -1.303,1.103 -1.339,6.696 0.592,7.183 1.764,0.445 2.776,-0.281 3.225,-1.442 z" />
          <path
             style="fill:#ffffff;stroke:#040000"
             inkscape:connector-curvature="0"
             id="path2479"
             d="m 252.658,125.156 c -0.998,-0.153 -2.084,0.267 -2.676,1.386 -0.768,1.452 -0.016,3.257 0.596,4.7 0.213,0.499 2.4,3.178 2.339,3.358 0.741,-2.204 2.452,-5.131 1.853,-7.524 -0.274,-1.097 -1.151,-1.774 -2.112,-1.92 z" />
          <path
             style="fill:#ffffff;stroke:#040000"
             inkscape:connector-curvature="0"
             id="path2481"
             d="m 258.919,132.341 c 1.277,-1.051 0.922,-5.562 0.224,-6.831 -1.182,-2.149 -3.411,-0.655 -3.956,1.158 -0.543,1.801 -0.51,4.316 -0.076,6.134 1.872,0.375 3.076,0.143 3.808,-0.461 z" />
          <path
             style="fill:#ffffff;stroke:#040000"
             inkscape:connector-curvature="0"
             id="path2483"
             d="m 267.265,131.171 c -0.269,-4.033 -1.217,-10.079 -3.973,-8.515 -2.96,1.68 -3.488,6.124 -3.361,8.921 0.096,2.103 0.398,2.403 2.756,2.706 0.325,0.042 4.64,0.194 4.646,0.113 0.038,-0.39 0.036,-1.654 -0.068,-3.225 z" />
          <path
             style="fill:#ffffff;stroke:#040000"
             inkscape:connector-curvature="0"
             id="path2485"
             d="m 293.639,125.747 c 0.279,-0.204 0.592,-0.355 0.929,-0.432 1.253,2.122 1.464,6.234 0.842,8.675 -0.127,0.489 -2.773,-1.06 -2.951,-1.251 -0.684,-0.725 -0.863,-1.35 -0.885,-2.325 -0.027,-1.273 0.666,-3.646 2.065,-4.667 z" />
          <path
             style="fill:#ffffff;stroke:#040000"
             inkscape:connector-curvature="0"
             id="path2487"
             d="m 291.336,133.642 c -4.502,-1.485 -2.34,-10.817 0.422,-7.535 0.723,0.863 1.713,8.239 -0.422,7.535 z" />
          <path
             style="fill:#ffffff;stroke:#040000"
             inkscape:connector-curvature="0"
             id="path2489"
             d="m 284.719,131.856 c -1.223,-2.724 0.647,-8.107 3.514,-5.923 1.359,1.034 1.687,6.618 -0.218,7.203 -1.738,0.531 -2.788,-0.143 -3.296,-1.28 z" />
          <path
             style="fill:#ffffff;stroke:#040000"
             inkscape:connector-curvature="0"
             id="path2491"
             d="m 281.751,124.58 c 0.989,-0.201 2.096,0.164 2.744,1.251 0.842,1.412 0.185,3.254 -0.351,4.723 -0.187,0.509 -2.233,3.293 -2.161,3.473 -0.854,-2.165 -2.716,-5.003 -2.242,-7.422 0.217,-1.109 1.059,-1.83 2.01,-2.025 z" />
          <path
             style="fill:#ffffff;stroke:#040000"
             inkscape:connector-curvature="0"
             id="path2493"
             d="m 275.871,132.069 c -1.33,-0.985 -1.209,-5.507 -0.579,-6.809 1.07,-2.205 3.373,-0.825 4.014,0.956 0.634,1.772 0.734,4.286 0.391,6.123 -1.851,0.469 -3.063,0.297 -3.826,-0.27 z" />
          <path
             style="fill:#ffffff;stroke:#040000"
             inkscape:connector-curvature="0"
             id="path2495"
             d="m 267.476,131.32 c 0.06,-4.039 0.69,-10.125 3.524,-8.702 3.043,1.53 3.802,5.94 3.821,8.741 0.015,2.104 -0.273,2.42 -2.612,2.841 -0.323,0.059 -4.625,0.426 -4.636,0.345 -0.055,-0.387 -0.119,-1.651 -0.097,-3.225 z" />
        </g>
      </g>
    </g>
  </g>
</svg>
